<svg width="1728" height="1117" viewBox="0 0 1728 1117" fill="none" xmlns="http://www.w3.org/2000/svg">
<g clip-path="url(#clip0_1_3)">
<path d="M2185.91 663.424C2289.14 537.521 2148.4 403.946 2063.95 264.746C1997.15 154.633 1968.8 39.6572 1841.3 21.4488C1672.92 -2.59733 1579.61 181.128 1554.68 349.378C1537.53 465.123 1549.04 551.114 1624.15 640.833C1711.99 745.755 1819.96 764.19 1956.29 752.455C2052.11 744.206 2124.93 737.796 2185.91 663.424Z" fill="#0047FF" fill-opacity="0.1"/>
<path d="M407.908 845.424C511.141 719.521 370.404 585.946 285.952 446.746C219.146 336.633 190.803 221.657 63.3029 203.449C-105.076 179.403 -198.393 363.128 -223.32 531.378C-240.469 647.123 -228.959 733.114 -153.848 822.833C-66.0094 927.755 41.9566 946.19 178.289 934.455C274.111 926.206 346.927 919.796 407.908 845.424Z" fill="#0047FF" fill-opacity="0.1"/>
</g>
<defs>
<clipPath id="clip0_1_3">
<rect width="1728" height="1117" fill="white"/>
</clipPath>
</defs>
</svg>
