<svg width="1512" height="76" viewBox="0 0 1512 76" fill="none" xmlns="http://www.w3.org/2000/svg">
<g clip-path="url(#clip0_6_11)">
<path d="M125.5 52C76.7896 52.3387 2 69.5 2 69.5L-34.5 149.5L1532.5 170.5V69.5C1532.5 69.5 1483.39 55.2086 1451 52L1450.96 51.9964C1422.62 49.1887 1406.15 47.5575 1378 52C1354.26 55.7467 1342.8 72.8128 1319 69.5C1302.64 67.2234 1296.63 55.5456 1280.5 52C1263.91 48.353 1253.82 54.3719 1237 52C1218.83 49.4383 1209.96 42.2456 1192 38.5C1117.27 22.9159 1074.98 76.9244 999 69.5C966.031 66.2782 948.919 55.7004 916 52C877.58 47.6812 855.662 52 817 52C778.924 52 757.485 49.3633 719.5 52C674.374 55.1324 650.131 72.5591 605 69.5C573.663 67.3759 557.547 56.752 526.5 52C456.822 41.3353 415.926 43.105 346 52C310.291 56.5425 291.438 67.442 255.5 69.5C204.358 72.4286 176.725 51.6439 125.5 52Z" fill="#1D4ED8"/>
</g>
<defs>
<clipPath id="clip0_6_11">
<rect width="1512" height="76" fill="white"/>
</clipPath>
</defs>
</svg>
