<svg width="633" height="383" viewBox="0 0 633 383" fill="none" xmlns="http://www.w3.org/2000/svg">
<path d="M519.347 49.0472C406.104 -28.7222 278.912 11.2476 142.008 56.2702C95.1514 71.6794 60.4279 74.9945 28.6 107.255C-50.3583 187.288 85.2273 282.06 193.557 333.715C340.132 403.607 575.562 400.983 619.352 266.16C647.806 178.552 603.882 107.102 519.347 49.0472Z" fill="white"/>
<g clip-path="url(#clip0_2_2)">
<path opacity="0.1" d="M177.984 146.625H212.488V193.917H180.506C180.425 194.406 180.343 194.892 180.251 195.38H212.488V233.514C212.434 233.514 212.379 233.473 212.328 233.452C211.421 233.09 210.515 232.706 209.608 232.3C209.414 232.211 209.224 232.119 209.027 232.034C208.12 231.603 207.213 231.147 206.307 230.666C205.99 230.499 205.674 230.324 205.365 230.146C200.331 227.322 195.756 223.741 191.798 219.528C191.679 219.415 191.57 219.292 191.458 219.186C190.907 218.584 190.367 217.975 189.843 217.353C189.646 217.124 189.456 216.892 189.262 216.669C188.643 215.91 188.045 215.124 187.467 214.334C187.378 214.215 187.297 214.099 187.212 213.993C184.844 210.698 182.88 207.128 181.363 203.36C181.316 203.247 181.272 203.124 181.227 203.018C180.758 201.822 180.333 200.608 179.966 199.37C179.809 198.854 179.656 198.345 179.527 197.808C179.48 197.654 179.442 197.497 179.401 197.343C177.491 189.77 177.27 181.9 177.27 174.068V171.332C177.297 168.135 177.334 164.94 177.382 161.749C177.4 160.929 177.417 160.105 177.433 159.278C177.48 157.183 177.548 155.084 177.637 152.98C177.657 152.399 177.684 151.814 177.715 151.237C177.729 150.902 177.746 150.567 177.766 150.231C177.827 149.021 177.9 147.819 177.984 146.625V146.625ZM212.488 93.9679H193.56C196.638 89.1285 200 84.4776 203.627 80.0396C206.443 76.5661 209.407 73.1815 212.488 69.9199V93.9679ZM212.488 95.4243V145.161H178.092C178.092 145.018 178.113 144.871 178.126 144.727C178.157 144.334 178.188 143.944 178.222 143.551C178.256 143.093 178.3 142.635 178.344 142.184C178.388 141.732 178.432 141.185 178.487 140.69C178.541 140.194 178.585 139.691 178.64 139.196C178.694 138.7 178.749 138.204 178.81 137.712C178.871 137.219 178.925 136.72 178.993 136.228C179.044 135.821 179.095 135.411 179.153 135.001C179.231 134.423 179.313 133.845 179.398 133.271C179.398 133.182 179.425 133.096 179.439 133.011C180.06 128.807 180.905 124.639 181.969 120.525C183.086 116.211 184.512 111.983 186.236 107.876C188.067 103.572 190.213 99.4101 192.655 95.4243H212.488ZM220.73 146.625V193.917H294.431V146.625H220.73ZM220.73 195.38V235.996C221.151 236.082 221.566 236.167 221.984 236.239C222.545 236.348 223.11 236.447 223.684 236.533L224.024 236.581C224.249 236.618 224.477 236.649 224.705 236.676C225.272 236.758 225.84 236.82 226.405 236.875C226.67 236.902 226.945 236.923 227.214 236.947L227.87 236.994C228.227 237.022 228.581 237.042 228.934 237.056C229.152 237.056 229.369 237.073 229.59 237.08C229.811 237.087 229.93 237.08 230.107 237.08H231.998C232.29 237.08 232.583 237.08 232.872 237.052H232.889C233.093 237.052 233.293 237.052 233.497 237.029C233.555 237.032 233.613 237.032 233.671 237.029C233.841 237.029 234.011 237.029 234.174 237.008C234.212 237.005 234.251 237.005 234.289 237.008C234.667 236.984 235.048 236.953 235.432 236.919C235.816 236.885 236.18 236.844 236.564 236.803L237.336 236.707C240.49 236.263 243.609 235.596 246.669 234.711C253.548 232.782 260.27 230.085 267.145 228.112C276.026 225.565 285.845 224.311 294.427 227.411V195.38H220.73ZM294.431 93.9679V31.0069C286.362 30.9176 278.316 31.8655 270.487 33.8274C251.824 38.5419 235.065 48.7676 220.73 61.8276V93.9645H224.439V95.4243H220.73V145.161H294.431V95.4243H239.614V93.9611L294.431 93.9679ZM389.117 72.6994C384.499 72.5353 379.909 71.0686 375.754 68.7951C367.818 64.4566 361.474 57.7489 354.388 52.0942C339.666 40.3095 321.407 33.1949 302.676 31.4308V93.9679H407.879L408.14 93.691L389.117 72.6994ZM398.702 70.99L408.865 82.2072V68.0396C405.444 68.4737 402.466 69.4823 398.702 70.9763V70.99ZM408.865 246.082V195.38H387.192C387.138 195.165 387.077 194.946 387.009 194.727C387.073 194.946 387.131 195.165 387.189 195.38H302.676V232.044C303.478 232.642 304.27 233.275 305.056 233.911C305.904 234.608 306.746 235.313 307.582 236.027L308.425 236.728C308.83 237.07 309.241 237.411 309.649 237.736C310.468 238.4 311.292 239.056 312.121 239.706C312.536 240.034 312.953 240.356 313.373 240.673C320.014 245.776 327.019 250.383 334.331 254.454C335.97 255.374 337.625 256.259 339.292 257.124C340.4 257.699 341.516 258.262 342.641 258.813C344.327 259.641 346.027 260.438 347.741 261.206C363.54 268.337 380.246 273.23 397.382 275.743C401.186 276.306 405.007 276.751 408.844 277.077V246.075H409.184L408.865 246.082ZM302.676 95.4243V145.161H408.865V95.4243H302.676ZM302.676 146.618V193.917H408.865V146.625L302.676 146.618ZM417.106 67.9712V83.8003L430.074 69.4857C425.777 68.7723 421.454 68.2675 417.106 67.9712V67.9712ZM417.106 146.625V193.917H520.385V146.625H417.106ZM520.021 249.832L520.385 195.38H417.106V277.627C423.759 277.905 430.421 277.824 437.065 277.384H437.181C440.354 277.179 443.513 276.887 446.657 276.509H446.728C463.506 274.545 479.911 270.139 495.428 263.429L520.021 249.832ZM540.309 154.392C539.917 153.481 539.515 152.569 539.102 151.657C538.334 149.948 537.525 148.286 536.688 146.628H528.63V193.917H549C548.983 180.522 545.61 166.847 540.309 154.392V154.392ZM528.63 195.38V242.218C534.366 236.69 539.218 230.362 542.706 223.128C546.906 214.413 548.827 204.984 548.986 195.377L528.63 195.38ZM528.63 132.843V145.151H535.933C533.719 140.92 531.281 136.812 528.63 132.843ZM458.588 77.2533C458.051 77.0447 457.51 76.8362 456.969 76.6379C451.269 74.5196 445.444 72.759 439.527 71.3661L419.677 93.2671L419.289 93.6876L419.544 93.9645H490.192C480.352 87.1563 469.743 81.5466 458.588 77.2533V77.2533ZM492.266 95.4243H418.555L417.106 96.7543V145.161H520.385V121.708C512.194 111.749 502.741 102.912 492.266 95.4243V95.4243Z" fill="#0067FF"/>
<path opacity="0.1" d="M212.488 120.515V145.161H178.092C178.092 145.018 178.113 144.871 178.126 144.727C178.157 144.334 178.188 143.944 178.222 143.551C178.256 143.093 178.3 142.635 178.344 142.184C178.388 141.732 178.432 141.185 178.487 140.69C178.541 140.194 178.585 139.691 178.64 139.196C178.694 138.7 178.749 138.204 178.81 137.712C178.871 137.219 178.925 136.72 178.993 136.228C179.044 135.821 179.095 135.411 179.153 135.001C179.231 134.423 179.313 133.845 179.398 133.271C179.398 133.182 179.425 133.096 179.439 133.011C180.06 128.807 180.905 124.639 181.969 120.525L212.488 120.515ZM177.984 146.625H212.488V193.917H180.506C180.425 194.406 180.343 194.892 180.251 195.38H212.488V233.514C212.434 233.514 212.379 233.473 212.328 233.452C211.421 233.09 210.515 232.706 209.608 232.3C209.414 232.211 209.224 232.119 209.027 232.034C208.12 231.603 207.213 231.147 206.307 230.666C205.99 230.499 205.674 230.324 205.365 230.146C200.331 227.322 195.756 223.741 191.798 219.528C191.679 219.415 191.57 219.292 191.458 219.186C190.907 218.584 190.367 217.975 189.843 217.353C189.646 217.124 189.456 216.892 189.262 216.669C188.643 215.91 188.045 215.124 187.467 214.334C187.378 214.215 187.297 214.099 187.212 213.993C184.844 210.698 182.88 207.128 181.363 203.36C181.316 203.247 181.272 203.124 181.227 203.018C180.758 201.821 180.333 200.608 179.966 199.37C179.809 198.854 179.656 198.345 179.527 197.808C179.48 197.654 179.442 197.497 179.401 197.343C177.491 189.77 177.27 181.9 177.27 174.067V171.332C177.297 168.135 177.334 164.94 177.382 161.749C177.4 160.929 177.417 160.105 177.433 159.278C177.48 157.183 177.548 155.084 177.637 152.98C177.657 152.399 177.684 151.814 177.715 151.237C177.729 150.902 177.746 150.567 177.766 150.231C177.827 149.021 177.9 147.819 177.984 146.625V146.625ZM246.673 102.549V145.161H220.726V102.549H224.426V88.1217H239.611V102.549H246.673V102.549ZM220.726 146.621H246.669V193.914H220.726V146.621ZM220.73 195.38H246.673V234.697C243.612 235.583 240.493 236.249 237.339 236.69C237.081 236.728 236.826 236.758 236.567 236.786C236.187 236.83 235.809 236.871 235.432 236.905L234.293 236.998H234.177L233.674 237.025H233.501C233.297 237.025 233.096 237.049 232.892 237.052H232.875C232.583 237.052 232.294 237.073 232.001 237.08H229.594C229.373 237.08 229.155 237.08 228.934 237.052C228.585 237.039 228.232 237.018 227.873 236.991L227.217 236.943C226.945 236.923 226.673 236.895 226.405 236.868C225.833 236.818 225.267 236.753 224.705 236.673L224.024 236.577L223.684 236.529C223.117 236.444 222.552 236.348 221.984 236.239C221.563 236.164 221.148 236.078 220.73 235.989V195.38ZM387.468 97.5166H408.861V145.158H387.468V97.5166ZM408.865 146.621V193.917H302.676V173.517H359.237V185.551H387.468V146.621H408.865V146.621ZM409.201 246.092C409.089 246.092 408.977 246.092 408.861 246.071V277.097C405.028 276.78 401.209 276.337 397.403 275.767C380.261 273.254 363.548 268.365 347.741 261.237C343.178 259.168 338.708 256.912 334.331 254.471C327.021 250.398 320.017 245.792 313.376 240.69C311.703 239.405 310.055 238.091 308.432 236.748C307.307 235.811 306.191 234.854 305.056 233.928C304.274 233.288 303.482 232.656 302.676 232.054V195.38H387.189C387.128 195.162 387.073 194.946 387.012 194.727C387.077 194.946 387.138 195.162 387.192 195.38H408.865V246.068C408.977 246.071 409.089 246.082 409.201 246.092ZM464.66 93.9679H450.72V89.6123H456.966V76.6379C457.508 76.8384 458.047 77.0436 458.584 77.2533V89.6123H464.657L464.66 93.9679ZM498.25 145.161H429.806C429.813 145.163 429.819 145.163 429.826 145.161H417.106V97.5201H420.704V132.734H437.14V111.879H450.723V95.4243H464.664V111.889H478.24V132.744H498.253L498.25 145.161ZM417.106 146.625V193.917H498.253V146.625H417.106ZM520.269 249.582L520.385 212.146H498.253V195.394H417.106V277.627C423.759 277.905 430.421 277.824 437.065 277.384H437.181C440.354 277.179 443.513 276.887 446.657 276.509H446.728C463.506 274.545 479.911 270.139 495.428 263.429L520.269 249.582ZM530.058 195.38H548.986C548.823 204.984 546.906 214.416 542.706 223.128C539.218 230.365 534.366 236.694 528.63 242.222V212.136H530.058V195.38ZM549 193.917H530.058V154.392H540.309C545.61 166.847 548.983 180.522 549 193.917V193.917Z" fill="#106DF6"/>
<path opacity="0.1" d="M397.403 110.761H408.865V125.698H397.403V110.761ZM397.403 141.722H408.865V145.161H397.403V141.722ZM397.403 146.621H408.865V156.655H397.403V146.621ZM397.403 172.683H408.865V187.62H397.403V172.683ZM397.403 203.644H408.865V218.581H397.403V203.644ZM408.865 246.068C408.977 246.068 409.089 246.068 409.205 246.092C409.092 246.092 408.98 246.092 408.865 246.071V249.541H397.403V234.605H408.865V246.068ZM408.865 265.562V277.097C405.029 276.78 401.209 276.337 397.403 275.767V265.562H408.865ZM302.676 192.82H351.797V193.917H302.676V192.82ZM302.676 195.377H351.797V199.582H302.676V195.377ZM302.676 213.367H351.797V220.129H302.676V213.367ZM351.797 233.914V240.676H313.376C311.703 239.396 310.055 238.08 308.432 236.731C307.303 235.798 306.188 234.841 305.056 233.914H351.797ZM351.797 254.458V261.237H347.741C343.178 259.168 338.708 256.912 334.331 254.471L351.797 254.458ZM437.065 151.206H446.735V160.929H437.065V151.206ZM227.693 105.903H237.363V115.626H227.693V105.903ZM227.693 128.488H237.363V138.211H227.693V128.488ZM227.693 151.072H237.363V160.796H227.693V151.072ZM227.693 173.654H237.363V183.377H227.693V173.654ZM227.693 196.239H237.363V205.962H227.693V196.239ZM227.693 218.823H237.363V228.546H227.693V218.823ZM473.98 151.206H483.65V160.929H473.98V151.206ZM437.065 175.189H446.735V184.912H437.065V175.189ZM473.98 175.189H483.65V184.912H473.98V175.189ZM437.065 199.169H446.735V208.892H437.065V199.169ZM473.98 199.169H483.65V208.892H473.98V199.169ZM437.065 223.152H446.735V232.875H437.065V223.152ZM473.98 223.152H483.65V232.875H473.98V223.152ZM437.065 247.135H446.735V256.858H437.065V247.135ZM473.98 247.135H483.65V256.858H473.98V247.135ZM437.065 277.384V271.114H446.732V276.492L437.065 277.384ZM179.398 133.001V138.563H212.488V133.001H179.398ZM182.693 138.214H179.973V133.353H182.693V138.214ZM185.987 138.214H183.267V133.353H185.987V138.214ZM189.275 138.214H186.555V133.353H189.275V138.214ZM192.57 138.214H189.85V133.353H192.57V138.214ZM195.861 138.214H193.141V133.353H195.861V138.214ZM199.156 138.214H196.436V133.353H199.156V138.214ZM202.451 138.214H199.731V133.353H202.451V138.214ZM205.742 138.214H203.022V133.353H205.742V138.214ZM209.033 138.214H206.313V133.353H209.033V138.214ZM212.328 138.214H209.608V133.353H212.328V138.214ZM179.398 149.192V154.755H212.488V149.192H179.398ZM182.693 154.406H179.973V149.544H182.693V154.406ZM185.987 154.406H183.267V149.544H185.987V154.406ZM189.275 154.406H186.555V149.544H189.275V154.406ZM192.57 154.406H189.85V149.544H192.57V154.406ZM195.861 154.406H193.141V149.544H195.861V154.406ZM199.156 154.406H196.436V149.544H199.156V154.406ZM202.451 154.406H199.731V149.544H202.451V154.406ZM205.742 154.406H203.022V149.544H205.742V154.406ZM209.033 154.406H206.313V149.544H209.033V154.406ZM212.328 154.406H209.608V149.544H212.328V154.406ZM179.398 165.387V170.946H212.488V165.387H179.398ZM182.693 170.594H179.973V165.732H182.693V170.594ZM185.987 170.594H183.267V165.732H185.987V170.594ZM189.275 170.594H186.555V165.732H189.275V170.594ZM192.57 170.594H189.85V165.732H192.57V170.594ZM195.861 170.594H193.141V165.732H195.861V170.594ZM199.156 170.594H196.436V165.732H199.156V170.594ZM202.451 170.594H199.731V165.732H202.451V170.594ZM205.742 170.594H203.022V165.732H205.742V170.594ZM209.033 170.594H206.313V165.732H209.033V170.594ZM212.328 170.594H209.608V165.732H212.328V170.594ZM179.398 181.579V187.138H212.488V181.579H179.398ZM182.693 186.789H179.973V181.921H182.693V186.789ZM185.987 186.789H183.267V181.921H185.987V186.789ZM189.275 186.789H186.555V181.921H189.275V186.789ZM192.57 186.789H189.85V181.921H192.57V186.789ZM195.861 186.789H193.141V181.921H195.861V186.789ZM199.156 186.789H196.436V181.921H199.156V186.789ZM202.451 186.789H199.731V181.921H202.451V186.789ZM205.742 186.789H203.022V181.921H205.742V186.789ZM209.033 186.789H206.313V181.921H209.033V186.789ZM212.328 186.789H209.608V181.921H212.328V186.789ZM179.558 197.763C179.687 198.29 179.84 198.81 179.996 199.326V198.115H182.717V202.974H181.258C181.299 203.09 181.343 203.21 181.391 203.316H212.502V197.763H179.558ZM186.018 202.974H183.298V198.115H186.018V202.974ZM189.306 202.974H186.586V198.115H189.306V202.974ZM192.601 202.974H189.881V198.115H192.601V202.974ZM195.892 202.974H193.172V198.115H195.892V202.974ZM199.187 202.974H196.467V198.115H199.187V202.974ZM202.481 202.974H199.761V198.115H202.481V202.974ZM205.773 202.974H203.053V198.115H205.773V202.974ZM209.064 202.974H206.344V198.115H209.064V202.974ZM212.359 202.974H209.639V198.115H212.359V202.974ZM187.222 213.955C187.31 214.064 187.392 214.187 187.477 214.297H189.275V216.632L189.857 217.316V214.283H192.577V219.186H191.458C191.567 219.299 191.672 219.418 191.798 219.528H212.481V213.955H187.222ZM195.878 219.186H193.158V214.304H195.878V219.186ZM199.173 219.186H196.453V214.304H199.173V219.186ZM202.468 219.186H199.748V214.304H202.468V219.186ZM205.759 219.186H203.039V214.304H205.759V219.186ZM209.05 219.186H206.33V214.304H209.05V219.186ZM212.345 219.186H209.625V214.304H212.345V219.186ZM205.375 230.146C205.688 230.324 206.004 230.488 206.32 230.663V230.492H209.04V232.034C209.237 232.119 209.424 232.211 209.618 232.3V230.492H212.338V233.452C212.39 233.476 212.443 233.495 212.498 233.511V230.146H205.375ZM408.861 246.068H409.201H408.861ZM387.009 194.727C387.073 194.946 387.131 195.165 387.189 195.38C387.138 195.165 387.077 194.946 387.009 194.727ZM224.439 93.9679V95.4243H239.628V93.961L224.439 93.9679ZM408.865 246.068H409.205H408.865ZM387.009 194.727C387.073 194.946 387.131 195.165 387.189 195.38C387.138 195.165 387.077 194.946 387.009 194.727ZM408.861 246.068H409.201H408.861ZM387.009 194.727C387.073 194.946 387.131 195.165 387.189 195.38C387.138 195.165 387.077 194.946 387.009 194.727Z" fill="#106DF6"/>
<path opacity="0.1" d="M451.016 326C469.313 326 484.146 323.604 484.146 320.65C484.146 317.695 469.313 315.299 451.016 315.299C432.718 315.299 417.885 317.695 417.885 320.65C417.885 323.604 432.718 326 451.016 326Z" fill="#106DF6"/>
<path opacity="0.1" d="M301.595 320.65C319.892 320.65 334.725 318.254 334.725 315.299C334.725 312.344 319.892 309.949 301.595 309.949C283.297 309.949 268.464 312.344 268.464 315.299C268.464 318.254 283.297 320.65 301.595 320.65Z" fill="#106DF6"/>
<path d="M339.737 173.821C339.729 173.787 339.711 173.757 339.686 173.732C339.179 173.23 332.719 164.044 332.719 164.044C332.719 164.044 332.379 163.018 331.828 161.685C332.005 161.455 332.137 161.194 332.219 160.915C332.249 160.797 332.271 160.677 332.284 160.556C332.284 160.519 332.311 160.488 332.321 160.45C332.439 159.987 332.428 159.499 332.287 159.042C332.25 159.159 332.203 159.273 332.148 159.384C332.02 158.985 331.849 158.602 331.638 158.242C330.781 156.758 329.557 155.507 328.656 154.061C327.292 151.814 326.749 149.159 327.123 146.553V146.956C327.157 146.439 327.225 145.925 327.327 145.418C327.469 144.84 327.659 144.275 327.894 143.729C328.704 141.866 330.013 140.242 330.808 138.372C331.075 137.741 331.278 137.084 331.414 136.413C331.694 135.29 331.796 134.131 331.716 132.977C331.716 133.25 331.672 133.524 331.631 133.794C331.545 131.019 330.431 128.376 328.506 126.385C325.729 123.578 321.74 122.488 317.925 121.913C316.322 121.725 314.791 121.138 313.471 120.204C312.006 119.25 310.112 119.021 308.398 119.23C306.429 119.444 304.598 120.354 303.233 121.797C301.421 123.801 300.636 126.638 298.521 128.327C297.239 129.353 295.614 129.831 294.121 130.529C292.628 131.226 291.217 132.238 290.738 133.736V133.705V133.79L290.718 133.845C290.221 135.616 291.18 137.418 291.68 139.185C292.2 141.014 292.234 142.946 292.261 144.837C292.299 147.148 292.333 149.462 292.295 151.777C292.278 152.686 292.248 153.606 292.18 154.512C291.375 154.756 290.593 155.072 289.844 155.455C289.082 155.955 286.233 159.049 286.233 159.049L280.66 180.457L280.735 180.543L280.66 180.833L280.942 180.768C281.731 181.623 284.087 184.057 286.631 185.575L286.869 189.774C286.869 189.774 287.154 193.986 291.007 195.726C291.095 197.186 291.37 203.114 290.095 205.463C289.212 207.178 288.797 209.099 288.892 211.028C288.892 211.028 289.337 214.591 288.831 216.464C288.535 217.716 288.513 219.018 288.766 220.28V221.405C288.766 225.196 288.81 237.347 288.766 238.721C288.701 240.345 288.766 264.362 288.766 264.362C288.766 264.362 288.45 276.366 287.437 279.617C286.423 282.868 286.678 293.634 286.678 293.634C286.678 293.634 286.042 306.458 288.29 308.988C288.29 309.101 288.27 309.217 288.266 309.33V309.491C288.239 310.465 288.426 311.501 289.259 311.819C290.959 312.475 293.206 314.444 293.632 315.009C294.057 315.573 296.528 316.978 299.752 316.602C301.771 316.373 303.803 316.28 305.834 316.321C305.834 316.321 307.106 316.089 306.695 314.499C306.43 313.508 305.437 311.983 304.729 310.981C304.859 311.015 304.984 311.043 305.103 311.067L305.226 311.091H305.321C305.373 311.094 305.425 311.094 305.477 311.091H305.545C305.609 311.096 305.673 311.096 305.736 311.091C306.589 311.008 309.772 312.499 310.34 313.484C310.907 314.468 312.91 315.217 314.42 315.405C315.317 315.514 317.582 315.33 319.483 315.084C320.44 314.984 321.388 314.811 322.318 314.564C322.767 314.393 322.862 313.846 322.733 313.231C322.58 312.449 322.165 311.744 321.557 311.234C321.006 310.841 320.278 309.805 319.741 308.957L319.598 308.728C320.547 307.819 322.26 304.844 322.781 304.229C323.413 303.48 321.761 276.099 321.761 276.099V262.372L324.294 249.381L326.065 242.506L327.585 232.126C327.585 232.126 330.244 220.003 329.424 218.813C329.424 218.789 328.744 206.307 328.03 203.309C327.721 201.972 327.799 198.963 327.983 196.037C328.175 195.845 328.308 195.603 328.369 195.338C328.429 195.073 328.413 194.796 328.323 194.539C328.272 194.364 328.206 194.194 328.126 194.03V193.873C329.594 193.193 331.129 192.668 332.706 192.307C335.239 191.808 334.606 190.495 334.606 190.495C334.606 190.495 335.177 189.37 335.555 188.683C335.932 187.996 335.619 181.931 335.555 181.432C335.531 181.23 335.375 180.115 335.194 178.85C336.007 178.269 337.064 177.548 338.217 176.864C340.41 175.558 339.917 174.18 339.737 173.821V173.821ZM306.688 260.499C306.688 260.499 304.787 265.374 305.549 266.622C306.311 267.87 305.423 272.502 305.423 272.502L304.787 279.378C304.787 279.378 303.016 292.13 303.648 295.128C304.145 297.48 304.328 304.506 304.386 307.436C304.343 307.453 304.3 307.473 304.26 307.497L304.175 307.542C304.468 306.39 304.345 304.058 302.893 299.367L302.771 279.993C302.771 279.993 302.547 257.613 304.304 255.111C306.062 252.608 306.685 248.359 306.685 248.359C306.685 248.359 306.304 254.488 306.056 256.112C305.807 257.736 306.688 260.499 306.688 260.499V260.499ZM303.148 308.656C303.131 308.697 303.111 308.738 303.097 308.776L303.002 308.653C303.051 308.658 303.1 308.659 303.148 308.656V308.656Z" fill="url(#paint0_linear_2_2)"/>
<path d="M322.532 316.335C321.55 316.714 316.222 317.361 314.733 317.179C313.243 316.998 311.271 316.239 310.71 315.248C310.149 314.256 307.004 312.759 306.161 312.855C305.815 312.865 305.47 312.817 305.141 312.711C304.559 312.534 303.991 312.315 303.441 312.055C303.364 311.624 303.377 311.181 303.478 310.755C303.498 310.67 303.523 310.585 303.553 310.502C303.751 309.942 304.162 309.482 304.695 309.224L304.818 309.166C305.054 309.063 305.3 308.988 305.552 308.94C308.225 308.424 319.251 309.46 319.251 309.46C319.251 309.46 319.561 310.017 319.986 310.708C320.516 311.562 321.237 312.605 321.781 312.998C322.384 313.516 322.793 314.225 322.94 315.008C323.07 315.614 322.974 316.167 322.532 316.335V316.335Z" fill="white"/>
<path opacity="0.1" d="M322.532 316.335C321.55 316.714 316.225 317.361 314.736 317.179C313.247 316.998 311.275 316.236 310.71 315.248C310.146 314.26 307.008 312.759 306.164 312.855C305.321 312.95 303.444 312.055 303.444 312.055C303.444 312.055 303.152 310.687 304.002 309.754L305.702 310.967C305.702 310.967 310.251 312.386 311.094 313.702C311.938 315.019 313.475 315.754 315.695 315.887C317.354 315.996 321.166 315.347 322.951 315.022C323.07 315.614 322.978 316.167 322.532 316.335V316.335Z" fill="black"/>
<path d="M306.256 318.079C304.251 318.039 302.245 318.134 300.252 318.362C297.059 318.738 294.621 317.337 294.196 316.759C293.771 316.181 291.571 314.229 289.881 313.545C289.055 313.224 288.861 312.178 288.899 311.2V311.039C288.93 310.42 289.021 309.805 289.171 309.203L302.4 308.92L303.546 310.482L303.723 310.721L304.42 311.675C304.42 311.675 304.736 312.092 305.151 312.701C305.852 313.726 306.831 315.241 307.093 316.243C307.511 317.846 306.256 318.079 306.256 318.079Z" fill="white"/>
<path opacity="0.1" d="M306.256 318.079C304.251 318.039 302.245 318.134 300.252 318.362C297.062 318.738 294.621 317.337 294.199 316.759C293.778 316.181 291.571 314.212 289.881 313.552C289.055 313.231 288.861 312.185 288.899 311.207C289.844 311.429 291.829 311.997 292.608 312.985C293.628 314.304 295.454 316.523 298.048 316.663C300.143 316.776 305.243 316.4 307.113 316.25C307.514 317.846 306.256 318.079 306.256 318.079V318.079Z" fill="black"/>
<path opacity="0.1" d="M304.682 309.21C304.529 310.352 304.056 310.66 303.716 310.728C303.633 310.744 303.548 310.744 303.465 310.728C303.42 310.725 303.376 310.718 303.332 310.708C303.332 310.708 291.452 313.347 289.052 311.21C288.991 311.155 288.934 311.096 288.882 311.032C288.913 310.413 289.004 309.798 289.154 309.196L302.383 308.913L303.529 310.475C303.728 309.914 304.138 309.455 304.672 309.196L304.682 309.21ZM319.982 310.694C319.717 310.988 319.496 311.155 319.357 311.097C318.731 310.844 313.604 309.966 311.975 310.721C310.346 311.477 304.835 310.844 304.835 310.844C304.835 310.844 304.835 310.188 304.804 309.135C305.04 309.033 305.286 308.957 305.539 308.909C308.211 308.393 319.238 309.429 319.238 309.429C319.238 309.429 319.561 310.003 319.982 310.694V310.694Z" fill="black"/>
<path d="M327.741 233.36L326.239 243.801L324.491 250.721L321.988 263.801V277.648C321.988 277.648 323.614 305.196 322.988 305.949C322.362 306.701 319.986 310.985 319.36 310.735C318.734 310.485 313.607 309.603 311.978 310.355C310.35 311.108 304.838 310.482 304.838 310.482C304.838 310.482 304.712 299.791 304.087 296.772C303.461 293.754 305.212 280.923 305.212 280.923L305.838 274.007C305.838 274.007 306.715 269.35 305.964 268.092C305.212 266.834 307.089 261.938 307.089 261.938C307.089 261.938 306.215 259.165 306.467 257.531C306.719 255.897 307.089 249.733 307.089 249.733C307.089 249.733 306.467 254.013 304.729 256.526C302.992 259.039 303.213 281.559 303.213 281.559L303.335 301.046C306.467 311.364 303.335 310.355 303.335 310.355C303.335 310.355 291.455 312.998 289.055 310.858C286.654 308.718 287.341 295.248 287.341 295.248C287.341 295.248 287.093 284.431 288.093 281.162C289.092 277.894 289.409 265.815 289.409 265.815C289.409 265.815 289.344 241.661 289.409 240.03C289.456 238.663 289.409 226.42 289.409 222.594V221.463L290.843 217.88L307.844 215.74H315.977C315.977 215.74 328.217 218.632 329.482 219.88C329.509 219.9 329.532 219.926 329.55 219.955C330.37 221.162 327.741 233.36 327.741 233.36V233.36Z" fill="#106DF6"/>
<path opacity="0.1" d="M307.099 288.205C307.099 288.205 310.839 297.261 312.604 297.89C314.369 298.519 307.099 288.205 307.099 288.205ZM308.483 301.538C308.483 301.538 321.111 302.167 320.985 303.552C320.86 304.937 308.483 301.538 308.483 301.538ZM291.588 297.918C292.088 298.393 301.221 299.285 300.469 300.154C299.718 301.022 292.339 302.711 292.339 302.711L291.588 297.918ZM290.089 282.294C290.089 282.67 291.965 294.369 292.469 294.872C292.972 295.374 297.096 295.877 297.096 295.877L290.089 282.294Z" fill="black"/>
<path d="M303.706 122.382C301.914 124.395 301.139 127.25 299.051 128.953C297.783 129.978 296.178 130.467 294.703 131.165C293.227 131.862 291.765 132.925 291.326 134.505C290.837 136.283 291.782 138.098 292.278 139.876C292.792 141.715 292.822 143.637 292.853 145.561C292.887 147.89 292.924 150.218 292.883 152.546C292.822 156.173 292.523 159.968 290.609 163.042C297.521 165.254 304.872 165.555 312.121 165.838C313.514 165.938 314.914 165.903 316.3 165.732C317.501 165.492 318.689 165.189 319.86 164.826C322.174 164.211 324.559 163.904 326.953 163.914C327.996 163.914 329.061 163.979 330.067 163.705C331.073 163.432 332.043 162.731 332.315 161.719C332.556 160.809 332.202 159.842 331.74 159.025C330.897 157.534 329.7 156.29 328.795 154.82C327.872 153.267 327.324 151.518 327.196 149.713C327.068 147.908 327.363 146.099 328.058 144.43C328.86 142.553 330.152 140.919 330.941 139.038C331.749 137.019 331.964 134.81 331.56 132.672C331.156 130.534 330.151 128.557 328.663 126.977C325.919 124.153 321.982 123.059 318.214 122.477C316.628 122.289 315.115 121.701 313.815 120.768C312.369 119.811 310.496 119.578 308.803 119.79C306.849 120.01 305.04 120.93 303.706 122.382V122.382Z" fill="#3F3D56"/>
<g opacity="0.1">
<path opacity="0.1" d="M328.163 142.457C327.47 144.104 327.173 145.893 327.296 147.678C327.372 146.401 327.665 145.148 328.163 143.972C328.962 142.095 330.254 140.46 331.043 138.58C331.688 137.01 331.959 135.31 331.835 133.616C331.765 134.803 331.497 135.971 331.043 137.069C330.254 138.949 328.962 140.58 328.163 142.457V142.457ZM292.955 145.096C292.975 146.437 292.996 147.78 292.999 149.12C292.999 147.274 292.982 145.431 292.955 143.589C292.928 141.678 292.894 139.742 292.38 137.9C292.04 136.731 291.537 135.544 291.36 134.365C291.058 136.04 291.918 137.739 292.38 139.411C292.894 141.237 292.928 143.185 292.955 145.096ZM330.183 161.749C329.163 162.026 328.115 161.965 327.072 161.958C324.68 161.943 322.296 162.244 319.982 162.854C318.812 163.215 317.624 163.516 316.422 163.756C315.035 163.93 313.635 163.966 312.24 163.866C305.236 163.589 298.133 163.291 291.425 161.278C291.226 161.725 290.999 162.159 290.745 162.577C297.657 164.785 305.008 165.09 312.254 165.373C313.648 165.474 315.049 165.437 316.436 165.264C317.633 165.026 318.817 164.726 319.982 164.365C322.291 163.753 324.67 163.448 327.058 163.459C328.102 163.459 329.163 163.524 330.169 163.247C331.175 162.97 332.145 162.276 332.417 161.264C332.531 160.795 332.519 160.304 332.383 159.842C332.08 160.799 331.145 161.466 330.183 161.749V161.749Z" fill="black"/>
</g>
<path d="M320.112 157.698C319.86 158.266 318.799 163.168 318.547 163.671C318.296 164.173 316.922 172.218 316.796 172.669C316.671 173.12 307.742 170.782 307.742 170.782L302.366 166.252L296.841 160.724C296.841 160.724 296.678 155.736 300.748 154.136C301.025 154.027 301.309 153.937 301.598 153.869C306.535 152.676 306.038 137.582 306.038 137.582L316.171 141.982C316.171 141.982 314.294 150.789 314.359 152.488C314.376 153.059 314.821 153.414 315.402 153.63C316.301 153.887 317.237 153.989 318.17 153.931C318.17 153.931 320.363 157.134 320.112 157.698Z" fill="#FBBEBE"/>
<path d="M338.251 174.238L339.689 174.618C339.689 174.618 340.754 176.245 338.251 177.76C336.662 178.73 335.137 179.803 333.685 180.97L326.29 183.233L324.865 178.738L331.747 173.486L338.251 174.238Z" fill="#106DF6"/>
<path opacity="0.1" d="M338.251 174.238L339.689 174.618C339.689 174.618 340.754 176.245 338.251 177.76C336.662 178.73 335.137 179.803 333.685 180.97L326.29 183.233L324.865 178.738L331.747 173.486L338.251 174.238Z" fill="black"/>
<path d="M284.281 178.58L281.405 181.411C281.405 181.411 286.593 187.449 290.585 187.825C294.577 188.201 297.151 183.233 297.151 183.233L293.696 177.763L284.281 178.58Z" fill="#106DF6"/>
<path opacity="0.1" d="M284.281 178.58L281.405 181.411C281.405 181.411 286.593 187.449 290.585 187.825C294.577 188.201 297.151 183.233 297.151 183.233L293.696 177.763L284.281 178.58Z" fill="black"/>
<path opacity="0.1" d="M311.604 147.445C317.131 147.445 321.611 142.94 321.611 137.384C321.611 131.827 317.131 127.322 311.604 127.322C306.078 127.322 301.598 131.827 301.598 137.384C301.598 142.94 306.078 147.445 311.604 147.445Z" fill="black"/>
<path d="M311.604 146.69C317.131 146.69 321.611 142.185 321.611 136.628C321.611 131.071 317.131 126.566 311.604 126.566C306.078 126.566 301.598 131.071 301.598 136.628C301.598 142.185 306.078 146.69 311.604 146.69Z" fill="#FBBEBE"/>
<path opacity="0.1" d="M329.557 221.097C327.279 221.359 325.034 221.864 322.862 222.605C319.122 223.856 289.813 222.625 289.405 222.605V221.473L290.84 217.89L307.841 215.75H315.974C315.974 215.75 328.214 218.642 329.479 219.89C329.53 220.642 329.557 221.097 329.557 221.097ZM320.112 157.698C319.86 158.266 318.799 163.168 318.547 163.671C318.296 164.173 316.922 172.218 316.796 172.669C316.671 173.12 307.742 170.782 307.742 170.782L302.366 166.252L296.841 160.724C296.841 160.724 296.678 155.736 300.748 154.136L310.853 165.818L315.402 153.63C316.301 153.887 317.237 153.989 318.17 153.931C318.17 153.931 320.363 157.134 320.112 157.698Z" fill="black"/>
<path d="M310.853 166.194L300.51 154.228C299.904 153.839 299.212 153.608 298.496 153.555C297.78 153.502 297.062 153.629 296.406 153.924C294.091 154.932 291.214 155.749 290.463 156.252C289.711 156.755 286.896 159.866 286.896 159.866L295.281 181.921L291.588 196.447C291.588 196.447 292.152 203.869 290.714 206.574C289.838 208.303 289.428 210.232 289.524 212.17C289.524 212.17 289.963 215.757 289.463 217.64C289.171 218.9 289.149 220.208 289.398 221.476C289.398 221.476 319.112 222.734 322.862 221.476C325.034 220.734 327.278 220.229 329.557 219.969C329.557 219.969 328.877 207.387 328.197 204.369C327.517 201.35 328.761 189.842 328.761 189.842L327.949 177.514L332.825 164.864C332.825 164.864 330.183 156.755 327.429 155.937C327.429 155.937 322.427 154.741 321.363 154.177C320.299 153.613 317.17 153.107 317.17 153.107L315.528 153.661L310.853 166.194Z" fill="#106DF6"/>
<path opacity="0.1" d="M325.284 177.097L303.519 175.609C302.968 175.572 302.491 175.99 302.454 176.544L300.117 211.097C300.08 211.651 300.496 212.13 301.047 212.168L322.812 213.656C323.362 213.694 323.839 213.275 323.877 212.721L326.213 178.168C326.251 177.615 325.835 177.135 325.284 177.097Z" fill="black"/>
<path d="M326.033 176.347L304.269 174.859C303.718 174.821 303.241 175.24 303.203 175.793L300.867 210.346C300.829 210.9 301.245 211.38 301.796 211.417L323.561 212.906C324.112 212.943 324.589 212.525 324.626 211.971L326.963 177.418C327 176.864 326.584 176.385 326.033 176.347Z" fill="#3F3D56"/>
<path d="M304.616 177.64L325.315 179.056L323.188 210.511L302.488 209.096L304.616 177.64Z" fill="white"/>
<path opacity="0.1" d="M306.55 185.894L323.459 187.084L323.129 191.823L306.22 190.633L306.55 185.894ZM320.164 205.731L322.847 205.915L322.68 208.384L319.997 208.201L320.164 205.731ZM306.465 199.016L320.2 199.955L320.034 202.424L306.298 201.485L306.465 199.016Z" fill="black"/>
<path d="M308.451 176.902L322.753 177.88L322.496 181.676L308.195 180.698L308.451 176.902Z" fill="#3F3D56"/>
<path opacity="0.1" d="M308.451 176.902L322.753 177.879L322.496 181.676L308.195 180.698L308.451 176.902ZM312.104 220.403C312.104 220.403 311.978 239.022 307.099 249.712C307.099 249.712 312.982 235.623 312.982 235.059C312.982 234.495 316.232 228.581 315.362 226.82C314.491 225.059 312.104 220.403 312.104 220.403ZM312.37 134.112C312.183 132.464 312.584 130.803 313.502 129.425C313.393 130.806 313.781 132.181 314.596 133.298C315.412 134.415 316.599 135.2 317.942 135.51C317.828 135.41 317.746 135.277 317.708 135.13C317.669 134.982 317.677 134.826 317.728 134.683C318.425 135.476 318.959 136.416 319.748 137.113C320.537 137.811 321.72 138.228 322.648 137.732C323.909 137.048 323.923 135.247 323.597 133.845C322.896 130.86 321.459 128.1 319.418 125.821C318.909 125.132 318.248 124.571 317.487 124.182C316.726 123.793 315.885 123.586 315.032 123.578C313.101 123.428 311.094 123.599 309.364 124.471C308.39 125.005 307.478 125.646 306.644 126.382L301.884 130.286C301.426 130.618 301.033 131.033 300.728 131.51C300.523 131.909 300.401 132.345 300.367 132.792C300.246 134.071 300.481 135.358 301.047 136.51C301.612 137.661 302.486 138.632 303.57 139.312C303.547 138.301 303.824 137.306 304.364 136.454C304.905 135.602 305.685 134.931 306.606 134.525C306.751 134.647 306.867 134.798 306.949 134.968C307.03 135.138 307.075 135.324 307.079 135.513L308.082 133.715C308.231 133.388 308.466 133.108 308.762 132.905C309.381 132.563 310.153 132.966 310.68 133.448C311.207 133.931 311.72 134.532 312.427 134.607L312.455 131.93" fill="black"/>
<path d="M312.369 133.736C312.182 132.087 312.583 130.424 313.502 129.045C313.196 131.78 315.246 134.604 317.946 135.131C317.831 135.031 317.749 134.899 317.711 134.752C317.672 134.605 317.68 134.45 317.731 134.307C318.428 135.1 318.962 136.036 319.751 136.737C320.54 137.438 321.723 137.852 322.651 137.353C323.913 136.669 323.926 134.867 323.6 133.469C322.9 130.484 321.462 127.724 319.421 125.445C318.788 124.669 317.99 124.045 317.085 123.619C316.431 123.376 315.743 123.235 315.045 123.202C313.114 123.052 311.108 123.219 309.377 124.091C308.404 124.628 307.492 125.27 306.657 126.006L301.897 129.91C301.438 130.241 301.046 130.656 300.741 131.134C300.536 131.533 300.414 131.969 300.381 132.416C300.259 133.694 300.495 134.981 301.061 136.132C301.626 137.283 302.5 138.253 303.584 138.932C303.562 137.922 303.838 136.928 304.379 136.075C304.919 135.223 305.699 134.552 306.62 134.146C306.764 134.268 306.88 134.419 306.962 134.589C307.043 134.759 307.088 134.945 307.093 135.134L308.092 133.342C308.24 133.015 308.476 132.734 308.772 132.532C309.391 132.19 310.163 132.594 310.69 133.076C311.217 133.558 311.73 134.156 312.437 134.235L312.465 131.554" fill="#3F3D56"/>
<path d="M317.109 197.199C316.235 196.755 301.785 199.021 301.785 199.021C301.785 199.021 299.405 198.338 293.652 197.387C287.899 196.437 287.532 190.782 287.532 190.782L286.903 179.462L288.844 177.753L297.161 183.223C297.161 183.223 297.29 185.989 297.161 186.488C297.079 186.83 296.862 187.237 296.882 187.514C296.888 187.589 296.919 187.66 296.969 187.715C297.02 187.771 297.087 187.808 297.161 187.821C297.725 187.965 305.416 189.216 305.416 189.216C305.416 189.216 323.243 187.989 327.687 194.027C328.039 194.47 328.305 194.975 328.472 195.517C329.574 199.644 317.901 197.592 317.109 197.199V197.199Z" fill="#FBBEBE"/>
<path opacity="0.1" d="M328.483 195.541C327.803 195.845 327.381 196.064 327.381 196.064C327.381 196.064 321.002 195.876 317.419 194.57C313.835 193.264 309.479 193.497 309.479 193.497C309.479 193.497 294.546 190.912 296.862 187.538C296.868 187.613 296.899 187.683 296.949 187.739C296.999 187.795 297.067 187.832 297.14 187.845C297.705 187.989 305.396 189.24 305.396 189.24C305.396 189.24 323.223 188.013 327.667 194.051C328.03 194.491 328.306 194.997 328.483 195.541V195.541Z" fill="black"/>
<path d="M334.684 175.623C334.684 175.623 335.562 181.849 335.623 182.355C335.684 182.861 336 188.956 335.623 189.65C335.245 190.345 334.684 191.473 334.684 191.473C334.684 191.473 335.31 192.792 332.808 193.298C330.305 193.804 327.367 195.309 327.367 195.309C327.367 195.309 320.985 195.121 317.422 193.801C313.859 192.481 309.479 192.731 309.479 192.731C309.479 192.731 290.524 189.459 298.657 185.466C306.79 181.473 312.543 186.881 312.543 186.881L321.611 186.317C321.611 186.317 324.991 184.238 325.929 184.43C326.592 184.515 327.265 184.406 327.867 184.115L327.932 177.51L334.684 175.623Z" fill="#FBBEBE"/>
<path opacity="0.1" d="M288.701 160.341L286.886 160.245L281.384 181.784C281.384 181.784 287.324 180.273 289.885 181.784C292.445 183.295 297.14 183.606 297.14 183.606L295.389 166.437L288.701 160.341Z" fill="black"/>
<path d="M288.701 159.961L286.886 159.866L281.384 181.404C281.384 181.404 287.324 179.893 289.885 181.404C292.445 182.915 297.14 183.227 297.14 183.227L295.389 166.057L288.701 159.961Z" fill="#106DF6"/>
<path opacity="0.1" d="M330.308 164.679L332.808 165.247C332.808 165.247 339.19 174.478 339.689 174.994C340.189 175.51 337.309 177.387 336.123 177.387C334.936 177.387 329.118 178.071 327.429 179.65C325.739 181.23 326.443 173.281 326.443 173.1C326.443 172.919 328.54 167.903 328.54 167.903L330.308 164.679Z" fill="black"/>
<path d="M330.308 164.303L332.808 164.867C332.808 164.867 339.19 174.115 339.689 174.618C340.189 175.12 337.309 177.011 336.123 177.011C334.936 177.011 329.118 177.695 327.429 179.274C325.739 180.854 326.443 172.905 326.443 172.724C326.443 172.543 328.554 167.51 328.554 167.51L330.308 164.303Z" fill="#106DF6"/>
<g opacity="0.1">
<path opacity="0.1" d="M313.485 129.076C313.47 128.814 313.476 128.551 313.502 128.289C312.984 129.071 312.628 129.948 312.455 130.871V131.825C312.455 132.378 312.454 132.936 312.437 133.489H312.39V133.746C312.39 133.657 312.39 133.572 312.373 133.483C311.693 133.373 311.207 132.799 310.7 132.341C310.193 131.883 309.401 131.445 308.782 131.797C308.486 131.999 308.251 132.28 308.102 132.607L307.093 134.399C307.088 134.21 307.044 134.025 306.962 133.855C306.881 133.685 306.764 133.535 306.62 133.414C305.699 133.819 304.918 134.491 304.378 135.343C303.837 136.195 303.561 137.19 303.584 138.201C302.655 137.615 301.877 136.816 301.316 135.869C300.755 134.922 300.426 133.855 300.357 132.754C300.298 133.983 300.566 135.205 301.133 136.294C301.7 137.384 302.546 138.302 303.584 138.953C303.562 137.942 303.838 136.948 304.379 136.096C304.919 135.244 305.699 134.572 306.62 134.166C306.764 134.288 306.88 134.439 306.962 134.609C307.043 134.78 307.088 134.966 307.093 135.154L308.092 133.363C308.24 133.035 308.476 132.755 308.772 132.553C309.391 132.211 310.163 132.614 310.69 133.096C311.217 133.578 311.73 134.177 312.437 134.255C312.437 133.38 312.447 132.507 312.465 131.636C312.632 130.723 312.978 129.852 313.485 129.076V129.076Z" fill="black"/>
<path opacity="0.1" d="M312.335 132.519C312.352 132.286 312.38 132.054 312.414 131.835L312.451 130.891C312.349 131.427 312.31 131.973 312.335 132.519V132.519ZM322.651 136.597C321.723 137.096 320.54 136.679 319.751 135.982C318.962 135.284 318.428 134.344 317.731 133.551C317.68 133.695 317.673 133.85 317.711 133.998C317.749 134.146 317.831 134.278 317.946 134.378C317.878 134.378 317.813 134.344 317.748 134.327C318.428 135.113 318.969 136.037 319.751 136.72C320.533 137.404 321.723 137.835 322.651 137.336C323.58 136.837 323.845 135.667 323.763 134.529C323.702 135.425 323.382 136.201 322.651 136.597V136.597ZM317.728 134.32C316.591 134.009 315.576 133.355 314.819 132.447C314.061 131.539 313.598 130.42 313.492 129.24C313.298 131.924 315.311 134.614 317.946 135.131C317.833 135.033 317.753 134.903 317.714 134.759C317.675 134.614 317.68 134.462 317.728 134.32V134.32Z" fill="black"/>
</g>
<path d="M481.015 190.197C481.015 190.197 479.675 190.009 479.675 188.05C479.675 186.091 478.716 182.423 478.716 182.423C478.716 182.423 477.887 176.04 476.741 175.028C475.595 174.016 474.123 168.074 474.123 168.074C474.123 168.074 473.871 164.85 473.358 164.156C472.844 163.462 472.151 161.763 471.127 159.339C470.104 156.915 465.847 155.254 465.847 155.254C465.847 155.254 458.132 150.755 455.946 149.288C455.746 149.166 455.559 149.024 455.388 148.864C455.007 148.365 453.348 148.355 453.348 148.355C453.175 147.25 453.008 145.985 452.954 144.84V144.471C455.392 143.022 457.228 140.737 458.125 138.037C458.166 137.907 458.2 137.773 458.238 137.64C458.387 137.594 458.524 137.516 458.642 137.412C458.759 137.309 458.853 137.181 458.918 137.038C459.111 136.597 459.118 136.084 459.363 135.671C459.649 135.185 460.193 134.925 460.621 134.563C461.702 133.636 461.981 132.081 461.93 130.669C461.896 129.52 461.712 128.365 461.784 127.226C461.784 127.13 461.784 127.035 461.804 126.939C461.825 126.771 461.848 126.597 461.879 126.433C462.046 125.585 462.409 124.785 462.613 123.944C462.817 123.103 462.838 122.156 462.362 121.431C461.665 120.368 460.213 120.156 458.938 120.064C457.493 119.941 456.218 120.098 455.276 118.891C454.844 118.261 454.357 117.67 453.821 117.127C453.63 116.949 451.781 115.811 451.781 115.739C449.971 114.893 447.918 114.734 446.001 115.291C445.038 115.571 444.137 116.03 443.161 116.259C441.067 116.758 438.653 116.218 436.871 117.424C435.878 118.108 435.283 119.199 434.726 120.255C434.272 121.126 433.812 121.998 433.345 122.871C432.59 124.303 431.829 125.76 431.513 127.346C431.447 127.692 431.404 128.043 431.387 128.395V128.939C431.387 129.055 431.387 129.171 431.407 129.281C431.428 129.39 431.407 129.421 431.431 129.493C431.455 129.565 431.462 129.725 431.482 129.835C431.502 129.944 431.543 130.139 431.584 130.286C431.584 130.351 431.625 130.413 431.645 130.477C431.666 130.542 431.72 130.707 431.764 130.819C431.808 130.932 431.812 130.939 431.839 130.997C431.89 131.117 431.951 131.233 432.012 131.339C432.04 131.383 432.06 131.428 432.087 131.472C432.181 131.632 432.285 131.785 432.4 131.93C433.124 132.843 434.199 133.425 434.991 134.279V134.662C435.039 136.568 435.551 138.434 436.48 140.096C437.409 141.759 438.728 143.168 440.322 144.201C440.322 144.331 440.339 144.464 440.346 144.597C440.412 145.611 440.4 146.628 440.309 147.64C440.17 147.476 439.997 147.346 439.801 147.259C439.606 147.171 439.394 147.128 439.18 147.134C439.034 147.127 438.887 147.139 438.745 147.172L438.714 147.148V147.178C437.966 147.363 437.045 148.146 436.164 150.372C436.164 150.372 433.485 153.408 431.445 153.281C429.405 153.155 424.24 156.443 424.24 156.443C424.24 156.443 419.201 159.729 418.12 163.079C417.515 164.98 416.789 166.839 415.947 168.645L409.701 181.541L408.555 191.798C408.555 191.798 409.191 196.348 409.065 197.045C408.939 197.743 411.68 203.999 411.68 203.999C411.68 203.999 420.734 219.993 424.434 220.813L424.699 220.628C424.858 220.709 425.026 220.771 425.199 220.813L425.96 220.276C426.007 220.877 425.987 221.482 425.899 222.078C425.392 223.661 426.093 233.965 426.984 235.986C427.875 238.006 427.558 264.502 427.558 264.502L427.433 266.837C427.433 266.837 427.433 266.912 427.463 267.042L427.433 267.596L427.524 267.644C427.62 268.387 427.589 269.141 427.433 269.873C427.113 270.899 426.984 273.795 426.984 273.795C426.984 273.795 424.434 290.164 425.644 293.453C426.855 296.742 427.878 300.345 427.878 300.345C427.878 300.345 429.153 304.448 427.939 305.132C426.725 305.815 423.288 307.029 423.988 308.735C424.634 310.314 427.086 314.547 427.45 315.166L427.419 315.508L426.919 320.954C427 321.673 427.194 322.375 427.494 323.032C428.041 324.222 429.102 325.45 431.128 325.316C431.468 325.292 431.859 325.255 432.244 325.203C435.946 324.701 440.503 323.039 440.503 323.039C440.266 322.889 440.05 322.708 439.86 322.503C439.678 322.325 439.534 322.113 439.436 321.878C439.338 321.642 439.29 321.39 439.292 321.135C439.347 320.14 437.5 315.419 437.038 314.253L436.932 313.993C436.932 313.993 441.142 309.566 440.441 305.648C440.441 305.648 435.783 302.913 437.317 301.408C438.85 299.904 441.591 295.596 441.591 295.596C441.591 295.596 441.716 279.477 441.591 277.073C441.459 275.402 441.538 273.72 441.825 272.068C441.876 271.822 441.937 271.579 442.002 271.336C444.125 271.659 446.268 271.822 448.415 271.825C449.199 271.825 449.992 271.809 450.795 271.777C450.795 272.005 450.805 272.252 450.825 272.516C451.002 276.509 451.332 283.514 451.601 286.116C451.981 289.843 454.086 299.897 454.086 299.897C454.086 299.897 450.07 302.485 454.786 308.875C454.786 308.875 454.786 311.186 454.474 311.525C454.139 312.621 453.87 313.736 453.668 314.865C453.471 316.065 453.389 317.285 453.709 317.914C454.474 319.426 459.064 319.303 459.064 319.303C459.101 319.294 459.138 319.288 459.176 319.285C460.042 319.193 460.918 319.276 461.753 319.528C462.587 319.781 463.363 320.198 464.035 320.756C465.779 322.164 472.396 321.549 475.983 321.097C477.387 320.916 478.325 320.756 478.325 320.756C478.37 320.596 478.387 320.429 478.373 320.263C478.336 319.378 477.645 317.436 472.967 315.703C472.967 315.703 468.567 312.728 468.628 310.137H468.023C468.343 310.126 468.567 310.126 468.567 310.126C468.567 310.126 466.843 303.805 467.547 303.289C468.251 302.773 466.143 295.767 466.143 295.767C466.143 295.767 464.936 284.007 464.868 283.186C464.872 282.479 464.98 281.776 465.187 281.101L464.868 274.649C464.868 274.649 464.807 272.506 464.868 271.808C464.861 271.203 464.813 270.599 464.725 270C464.694 269.76 464.664 269.511 464.63 269.265C466.279 268.844 467.35 268.458 467.35 268.458L467.159 246.013C468.56 243.278 468.819 237.275 468.812 233.022C468.812 230.287 468.689 228.263 468.689 228.263L470.604 225.121C470.604 225.121 471.046 221.36 470.345 220.536C470.036 220.163 470.175 219.777 470.43 219.459C470.564 219.349 470.707 219.248 470.855 219.158C470.839 219.135 470.824 219.109 470.811 219.083C470.945 218.971 471.087 218.869 471.236 218.779C471.236 218.779 470.556 217.719 471.165 217.271C471.736 217.661 472.246 217.972 472.634 218.194C472.606 218.444 472.579 218.587 472.579 218.587L472.742 218.246C473.116 218.457 473.344 218.587 473.344 218.587C473.344 218.587 476.343 212.581 476.278 211.698C476.214 210.816 478.319 207.083 478.319 207.083C478.319 207.083 478.574 205.121 479.723 204.3C480.872 203.48 480.614 197.534 480.614 197.534C480.614 197.534 480.933 194.437 481.698 193.175C482.463 191.914 481.015 190.197 481.015 190.197V190.197ZM423.635 187.562L423.692 188.994C423.352 188.444 423.108 188.05 423.108 188.05L423.635 187.562Z" fill="url(#paint1_linear_2_2)"/>
<path d="M473.521 215.989L472.787 219.134C472.787 219.134 466.904 216.109 465.847 212.28C464.79 208.451 467.618 206.991 467.618 206.991L473.103 209.322L473.521 215.989Z" fill="white"/>
<path opacity="0.1" d="M473.521 215.989L472.787 219.134C472.787 219.134 466.904 216.109 465.847 212.28C464.79 208.451 467.618 206.991 467.618 206.991L473.103 209.322L473.521 215.989Z" fill="black"/>
<path d="M440.509 323.036C440.509 323.036 435.069 325.046 431.329 325.299C429.343 325.432 428.3 324.209 427.762 323.029C427.47 322.379 427.28 321.687 427.198 320.978L427.691 315.559L427.949 312.677L435.895 310.598L437.021 314.061L437.126 314.321C437.575 315.48 439.391 320.178 439.336 321.159C439.332 321.413 439.379 321.665 439.474 321.9C439.569 322.135 439.711 322.348 439.891 322.526C440.074 322.722 440.282 322.893 440.509 323.036ZM477.652 320.28C477.666 320.446 477.65 320.613 477.605 320.773C477.605 320.773 465.969 322.721 463.589 320.773C462.92 320.203 462.14 319.781 461.3 319.532C460.459 319.283 459.576 319.213 458.707 319.326C458.707 319.326 454.205 319.45 453.454 317.959C453.141 317.333 453.222 316.12 453.416 314.926C453.614 313.804 453.877 312.695 454.205 311.603L454.385 311.46L455.456 310.595L467.996 310.222H468.091C468.03 312.8 472.345 315.757 472.345 315.757C476.938 317.467 477.615 319.398 477.652 320.28V320.28Z" fill="white"/>
<path opacity="0.1" d="M477.656 320.28C477.668 320.446 477.65 320.613 477.605 320.773C477.605 320.773 465.969 322.721 463.593 320.773C462.923 320.203 462.143 319.78 461.302 319.531C460.46 319.282 459.576 319.212 458.707 319.326C458.707 319.326 454.202 319.45 453.45 317.959C453.141 317.333 453.219 316.12 453.413 314.923C455.147 315.097 457.884 315.532 458.958 316.571C460.584 318.144 463.338 319.716 465.024 319.843C466.357 319.925 474.283 320.178 477.656 320.28V320.28ZM440.509 323.036C440.509 323.036 435.069 325.046 431.329 325.299C429.343 325.432 428.3 324.209 427.762 323.029C429.15 323.497 431.071 323.986 432.081 323.538C433.277 323.002 437.521 322.66 439.901 322.513C440.08 322.713 440.285 322.889 440.509 323.036Z" fill="black"/>
<path d="M448.581 161.021C444.093 159.267 438.32 153.473 439.761 150.765C440.08 150.081 440.27 149.344 440.322 148.59C440.415 147.567 440.429 146.539 440.363 145.513C440.262 143.833 440.061 142.161 439.761 140.505C439.761 140.505 453.773 140.823 452.957 142.898C452.719 143.51 452.678 144.566 452.746 145.746C452.814 146.925 452.981 148.269 453.158 149.401C453.399 150.949 453.647 152.136 453.647 152.136C453.647 152.136 452.787 153.343 452.287 153.408C451.788 153.473 455.021 163.534 448.581 161.021Z" fill="#CF6F80"/>
<path opacity="0.1" d="M437.113 314.304L437.007 314.42C432.818 309.326 427.752 315.679 427.752 315.679L427.677 315.542L427.936 312.66L435.882 310.581L437.007 314.044L437.113 314.304ZM468.098 310.581C468.098 310.581 465.038 310.52 463.406 311.969C461.774 313.419 453.885 312.28 454.225 311.969C454.325 311.811 454.385 311.632 454.402 311.446L455.473 310.581L468.013 310.208C468.06 310.448 468.098 310.581 468.098 310.581Z" fill="black"/>
<path d="M442.325 270.577C442.098 271.144 441.924 271.731 441.808 272.331C441.525 273.974 441.446 275.647 441.574 277.309C441.699 279.702 441.574 295.74 441.574 295.74C441.574 295.74 438.884 300.017 437.381 301.525C435.878 303.032 440.441 305.74 440.441 305.74C441.121 309.641 437 314.044 437 314.044C432.812 308.95 427.745 315.299 427.745 315.299C427.745 315.299 424.991 310.513 424.304 308.803C423.618 307.094 426.994 305.914 428.181 305.217C429.367 304.52 428.119 300.431 428.119 300.431C428.119 300.431 427.12 296.844 425.93 293.572C424.74 290.301 427.242 274.017 427.242 274.017C427.242 274.017 427.371 271.121 427.681 270.113C427.835 269.385 427.866 268.635 427.773 267.897C427.752 267.648 427.728 267.442 427.711 267.299C427.694 267.155 427.681 267.094 427.681 267.094L427.728 267.012L429.428 263.825C429.428 263.825 443.141 268.571 442.325 270.577V270.577ZM468.098 310.205C468.098 310.205 465.038 310.14 463.406 311.573C461.774 313.005 453.885 311.887 454.225 311.573C454.565 311.258 454.535 308.933 454.535 308.933C449.907 302.578 453.855 300 453.855 300C453.855 300 451.791 290 451.417 286.29C451.155 283.702 450.832 276.718 450.659 272.762C450.584 271.053 450.54 269.873 450.54 269.873L454.287 269.124L454.773 269.029L463.892 267.186C463.892 267.186 464.143 268.895 464.314 270.294C464.399 270.891 464.446 271.492 464.453 272.095C464.395 272.779 464.453 274.923 464.453 274.923L464.766 281.336C464.564 282.01 464.459 282.709 464.453 283.412C464.518 284.232 465.704 295.928 465.704 295.928C465.704 295.928 467.768 302.909 467.064 303.412C466.36 303.914 468.098 310.205 468.098 310.205V310.205Z" fill="#106DF6"/>
<path opacity="0.1" d="M452.957 142.908C452.719 143.52 452.678 144.577 452.746 145.756C450.87 146.893 448.712 147.474 446.521 147.433C444.331 147.391 442.196 146.73 440.363 145.524C440.262 143.844 440.061 142.171 439.761 140.515C439.761 140.515 453.773 140.833 452.957 142.908V142.908Z" fill="black"/>
<path d="M458.367 135.36C458.385 136.895 458.102 138.42 457.535 139.846C456.967 141.272 456.126 142.572 455.058 143.671C453.991 144.77 452.719 145.647 451.315 146.252C449.911 146.856 448.402 147.177 446.874 147.196C445.347 147.214 443.831 146.93 442.412 146.359C440.994 145.788 439.702 144.942 438.609 143.869C437.516 142.796 436.643 141.517 436.042 140.105C435.44 138.693 435.121 137.176 435.103 135.64V135.36C435.103 132.257 436.329 129.281 438.511 127.087C440.693 124.893 443.653 123.66 446.738 123.66C449.824 123.66 452.784 124.893 454.966 127.087C457.148 129.281 458.374 132.257 458.374 135.36H458.367Z" fill="#CF6F80"/>
<path opacity="0.1" d="M448.581 161.021C444.093 159.267 438.32 153.472 439.761 150.765C440.08 150.081 440.27 149.344 440.322 148.59L446.466 153.671L450.268 156.806L453.158 149.411C453.399 150.96 453.647 152.146 453.647 152.146C453.647 152.146 452.787 153.353 452.287 153.418C451.788 153.483 455.021 163.534 448.581 161.021V161.021Z" fill="black"/>
<path d="M464.47 183.473L459.339 270.14L452.648 270.581L435.317 220.328L438.16 160.666L438.762 148.06L446.466 154.423L450.268 157.558L453.243 149.944L458.775 154.792L464.47 183.473Z" fill="#106DF6"/>
<path opacity="0.1" d="M442.325 270.577C442.098 271.144 441.925 271.731 441.808 272.331C436.935 271.577 432.201 270.091 427.766 267.924L427.674 267.877L427.705 267.326V267.039L429.405 263.853C429.405 263.853 443.141 268.571 442.325 270.577V270.577ZM454.399 272.345C453.154 272.559 451.899 272.704 450.638 272.779C450.563 271.07 450.519 269.89 450.519 269.89L454.287 269.124L454.399 272.345ZM464.327 270.294C461.91 270.926 458.173 271.637 454.834 271.193L454.786 269.029L463.906 267.186C463.906 267.186 464.147 268.882 464.327 270.294V270.294Z" fill="black"/>
<path opacity="0.1" d="M454.773 271.589C440.832 273.983 428.065 267.121 428.065 267.121L428.187 264.796C428.187 264.796 428.504 238.441 427.626 236.42C426.749 234.399 426.066 224.167 426.562 222.605C427.059 221.042 424.75 197.452 424.75 197.452L424.376 187.88L410.677 182.283L416.797 169.452C417.623 167.654 418.334 165.804 418.925 163.914C419.99 160.58 424.93 157.308 424.93 157.308C424.93 157.308 429.996 154.04 431.999 154.163C434.002 154.286 436.626 151.271 436.626 151.271C438.565 146.303 440.319 148.536 440.319 148.536C440.319 148.775 440.319 148.536 440.224 149.271C439.544 154.724 451.22 171.955 451.386 172.262L452.512 199.497L453.637 233.962L454.773 271.589Z" fill="black"/>
<path d="M454.399 271.589C440.458 273.983 427.688 267.121 427.688 267.121L427.813 264.796C427.813 264.796 428.126 238.441 427.249 236.42C426.372 234.399 425.688 224.157 426.188 222.581C426.688 221.005 424.366 197.439 424.366 197.439L423.988 187.866L410.293 182.269L416.413 169.438C417.237 167.64 417.948 165.792 418.541 163.903C419.606 160.58 424.563 157.305 424.563 157.305C424.563 157.305 429.629 154.037 431.628 154.16C433.628 154.283 436.266 151.271 436.266 151.271C438.207 146.303 440.346 148.536 440.346 148.536C440.346 148.775 440.142 148.878 440.251 149.271C441.747 154.56 450.873 171.955 451.04 172.262L452.165 199.497L453.267 233.979L454.399 271.589Z" fill="white"/>
<path opacity="0.1" d="M450.642 173.032C449.142 172.403 441.2 163.285 441.2 163.285V161.209C440.911 160.526 439.19 160.943 437.799 161.421L438.398 148.816L439.078 149.384C440.564 154.669 450.479 172.727 450.642 173.032V173.032Z" fill="black"/>
<path d="M451.019 172.279C449.516 171.647 441.574 162.532 441.574 162.532V160.454C441.285 159.77 439.568 160.187 438.173 160.666L438.762 148.074L439.442 148.638C440.941 153.917 450.852 171.972 451.019 172.279Z" fill="white"/>
<path opacity="0.1" d="M428.065 217.75C428.252 217.75 437.759 216.745 437.759 216.745C437.759 216.745 443.515 228.129 443.138 230.895C442.76 233.661 442.077 236.116 439.761 235.682C437.446 235.247 427.3 236.023 427.3 236.023L428.065 217.75Z" fill="black"/>
<path d="M427.688 216.994C427.878 216.994 437.385 215.989 437.385 215.989C437.385 215.989 443.138 227.391 442.764 230.126C442.39 232.861 441.699 235.347 439.387 234.912C437.075 234.478 426.923 235.254 426.923 235.254L427.688 216.994Z" fill="white"/>
<path d="M434.852 211.664C434.852 211.664 443.576 216.382 443.763 217.818C443.95 219.254 439.323 217.189 438.323 216.936C437.665 216.779 436.995 216.674 436.32 216.622L429.653 216.803L434.852 211.664Z" fill="#CF6F80"/>
<path opacity="0.1" d="M448.204 173.62C448.711 173.62 449.122 173.206 449.122 172.697C449.122 172.187 448.711 171.773 448.204 171.773C447.697 171.773 447.286 172.187 447.286 172.697C447.286 173.206 447.697 173.62 448.204 173.62Z" fill="black"/>
<path d="M448.204 173.244C448.711 173.244 449.122 172.83 449.122 172.32C449.122 171.811 448.711 171.397 448.204 171.397C447.697 171.397 447.286 171.811 447.286 172.32C447.286 172.83 447.697 173.244 448.204 173.244Z" fill="#3F3D56"/>
<path opacity="0.1" d="M449.894 213.579C450.401 213.579 450.812 213.166 450.812 212.656C450.812 212.146 450.401 211.733 449.894 211.733C449.387 211.733 448.976 212.146 448.976 212.656C448.976 213.166 449.387 213.579 449.894 213.579Z" fill="black"/>
<path d="M449.894 213.199C450.401 213.199 450.812 212.786 450.812 212.276C450.812 211.766 450.401 211.353 449.894 211.353C449.387 211.353 448.976 211.766 448.976 212.276C448.976 212.786 449.387 213.199 449.894 213.199Z" fill="#3F3D56"/>
<path opacity="0.1" d="M449.122 193.599C449.629 193.599 450.04 193.186 450.04 192.676C450.04 192.166 449.629 191.753 449.122 191.753C448.615 191.753 448.204 192.166 448.204 192.676C448.204 193.186 448.615 193.599 449.122 193.599Z" fill="black"/>
<path d="M449.122 193.223C449.629 193.223 450.04 192.81 450.04 192.3C450.04 191.79 449.629 191.377 449.122 191.377C448.615 191.377 448.204 191.79 448.204 192.3C448.204 192.81 448.615 193.223 449.122 193.223Z" fill="#3F3D56"/>
<path d="M470.284 216.43C470.284 216.43 470.91 217.374 470.284 217.798C469.658 218.222 470.345 219.309 470.345 219.309C470.345 219.309 468.785 220.225 469.471 221.056C470.158 221.887 469.723 225.617 469.723 225.617L467.846 228.758C467.846 228.758 467.958 230.772 467.965 233.493C467.965 237.74 467.717 243.709 466.343 246.43L466.527 268.759C466.527 268.759 459.955 271.176 454.453 270.437L453.637 234.608C453.637 234.608 454.827 214.29 455.266 210.392C455.523 208.369 455.627 206.329 455.579 204.29C455.579 204.29 455.392 198.191 454.763 195.363C454.763 195.363 454.083 183.097 454.015 179.702C453.984 178.078 454.069 173.339 454.164 168.833C454.27 163.907 454.389 159.261 454.389 159.261L453.148 149.384C453.148 149.384 454.389 149.261 454.763 149.76C454.93 149.917 455.112 150.058 455.307 150.18C457.452 151.637 465.021 156.115 465.021 156.115C465.021 156.115 469.21 157.79 470.213 160.191C471.216 162.591 471.913 164.293 472.399 164.977C472.885 165.661 473.15 168.874 473.15 168.874C473.15 168.874 474.592 174.789 475.717 175.791C476.843 176.792 477.652 183.151 477.652 183.151L467.707 191.015C467.707 191.015 466.833 204.095 466.646 204.601C466.459 205.107 470.284 216.43 470.284 216.43V216.43Z" fill="white"/>
<path d="M470.662 216.43C470.662 216.43 471.284 217.374 470.662 217.798C470.039 218.222 470.719 219.309 470.719 219.309C470.719 219.309 469.159 220.225 469.845 221.056C470.532 221.887 470.097 225.616 470.097 225.616L468.227 228.758C468.227 228.758 468.339 230.772 468.349 233.493C468.349 237.74 468.101 243.709 466.728 246.43L466.915 268.759C466.915 268.759 460.342 271.176 454.841 270.437L454.028 234.608C454.028 234.608 455.215 214.29 455.657 210.392C455.914 208.369 456.017 206.329 455.966 204.29C455.966 204.29 455.779 198.191 455.154 195.363C455.154 195.363 454.474 183.097 454.402 179.702C454.372 178.078 454.457 173.339 454.552 168.833C454.657 163.907 454.776 159.261 454.776 159.261L453.137 149.25C453.137 149.25 454.776 149.25 455.154 149.76C455.32 149.919 455.502 150.06 455.698 150.18C457.84 151.637 465.408 156.115 465.408 156.115C465.408 156.115 469.587 157.79 470.607 160.19C471.627 162.59 472.307 164.293 472.793 164.977C473.28 165.661 473.545 168.874 473.545 168.874C473.545 168.874 474.986 174.789 476.112 175.791C477.237 176.792 478.05 183.151 478.05 183.151L468.105 191.015C468.105 191.015 467.231 204.095 467.04 204.601C466.85 205.107 470.662 216.43 470.662 216.43V216.43Z" fill="white"/>
<path opacity="0.1" d="M458.751 162.163L459.652 164.796L454.922 169.582C455.028 164.655 455.147 160.009 455.147 160.009L453.508 150.002C453.508 150.002 455.147 150.002 455.524 150.512C455.69 150.671 455.873 150.812 456.068 150.932L460.087 162.587L458.751 162.163Z" fill="black"/>
<path d="M458.367 161.408L459.268 164.037L454.542 168.823C454.644 163.896 454.766 159.25 454.766 159.25L453.124 149.24C453.124 149.24 454.766 149.24 455.14 149.749C455.307 149.908 455.489 150.049 455.684 150.17L459.727 161.835L458.367 161.408Z" fill="white"/>
<path opacity="0.1" d="M458.367 135.36C458.368 136.591 458.175 137.816 457.795 138.987C457.731 138.998 457.666 138.995 457.603 138.98C457.54 138.965 457.48 138.937 457.428 138.898C457.336 135.821 455.834 132.929 453.981 130.471C453.459 129.729 452.829 129.072 452.111 128.522C451.383 127.973 450.479 127.716 449.574 127.801C448.554 127.941 447.653 128.638 446.623 128.727C445.263 128.84 444.045 127.893 442.696 127.848C442.147 127.853 441.605 127.976 441.107 128.208C440.609 128.44 440.167 128.777 439.809 129.195C439.099 130.037 438.572 131.019 438.262 132.078C437.727 133.684 437.436 135.362 437.398 137.055C437.381 138.013 437.289 139.213 436.405 139.561C436.472 138.858 436.393 138.148 436.172 137.477C435.952 136.806 435.594 136.189 435.124 135.664L435.103 135.64V135.36C435.103 132.257 436.329 129.281 438.511 127.087C440.693 124.893 443.653 123.66 446.738 123.66C449.824 123.66 452.784 124.893 454.966 127.087C457.148 129.281 458.374 132.257 458.374 135.36H458.367Z" fill="black"/>
<path d="M451.567 116.785C449.8 115.949 447.79 115.791 445.916 116.341C444.974 116.621 444.086 117.076 443.131 117.305C441.091 117.8 438.711 117.264 436.96 118.464C435.987 119.148 435.402 120.228 434.858 121.281L433.498 123.883C432.757 125.308 432.009 126.758 431.7 128.327C431.39 129.896 431.577 131.654 432.567 132.919C433.284 133.835 434.352 134.413 435.134 135.278C435.604 135.805 435.96 136.424 436.18 137.097C436.4 137.769 436.479 138.48 436.412 139.185C437.296 138.843 437.385 137.637 437.405 136.679C437.443 134.986 437.734 133.308 438.269 131.701C438.579 130.643 439.106 129.661 439.816 128.819C440.173 128.4 440.616 128.063 441.114 127.83C441.612 127.597 442.153 127.474 442.702 127.469C444.062 127.517 445.283 128.464 446.63 128.348C447.65 128.262 448.554 127.565 449.581 127.424C450.486 127.338 451.391 127.596 452.117 128.146C452.836 128.694 453.466 129.352 453.984 130.095C455.84 132.556 457.347 135.435 457.435 138.522C457.819 138.802 458.374 138.433 458.564 137.995C458.754 137.558 458.761 137.045 459.003 136.628C459.281 136.146 459.815 135.886 460.233 135.524C461.294 134.604 461.559 133.055 461.519 131.65C461.478 130.245 461.206 128.819 461.471 127.438C461.631 126.594 461.991 125.797 462.188 124.96C462.386 124.122 462.409 123.182 461.944 122.46C461.264 121.404 459.832 121.192 458.584 121.093C457.166 120.97 455.898 121.127 454.994 119.927C454.568 119.302 454.09 118.714 453.566 118.17C453.379 117.989 451.567 116.86 451.567 116.785V116.785Z" fill="#512E4E"/>
<path opacity="0.1" d="M414.601 188.881L411.051 182.279L409.925 192.468C409.925 192.468 410.551 196.994 410.425 197.688C410.299 198.382 412.989 204.604 412.989 204.604C412.989 204.604 421.873 220.519 425.501 221.336L437.742 212.529L434.491 208.379C434.491 208.379 433.366 207.938 433.084 208.379C433.084 208.379 427.045 197.938 426.423 197.186C425.801 196.433 425.92 194.919 425.92 194.919C425.92 194.919 424.981 193.914 425.294 192.97C425.607 192.027 423.499 188.758 423.499 188.758L425.437 186.936L414.601 188.881Z" fill="black"/>
<path d="M411.238 181.524L410.299 182.279L409.174 192.468C409.174 192.468 409.8 196.994 409.674 197.688C409.548 198.382 412.241 204.604 412.241 204.604C412.241 204.604 421.122 220.519 424.75 221.336L437.011 212.529L433.757 208.379C433.757 208.379 432.631 207.938 432.349 208.379C432.349 208.379 426.314 197.938 425.688 197.186C425.063 196.433 425.188 194.919 425.188 194.919C425.188 194.919 424.25 193.914 424.563 192.97C424.876 192.027 422.747 188.758 422.747 188.758L424.685 186.936L411.238 181.524Z" fill="white"/>
<path opacity="0.1" d="M469.471 221.449C470.152 222.28 469.723 226.013 469.723 226.013L467.846 229.134C467.846 229.134 467.958 231.152 467.965 233.873L464.81 234.864C464.524 234.954 464.222 234.974 463.927 234.921C463.632 234.869 463.354 234.747 463.116 234.565C462.878 234.383 462.686 234.147 462.557 233.875C462.429 233.604 462.366 233.305 462.375 233.005L462.923 215.363L470.284 218.191C469.658 218.628 470.345 219.702 470.345 219.702C470.345 219.702 468.785 220.618 469.471 221.449V221.449Z" fill="black"/>
<path d="M469.845 221.073C470.526 221.9 470.097 225.634 470.097 225.634L468.227 228.758C468.227 228.758 468.339 230.772 468.349 233.493L465.136 234.502C464.857 234.59 464.561 234.61 464.273 234.559C463.985 234.509 463.713 234.39 463.48 234.212C463.247 234.034 463.06 233.803 462.934 233.538C462.808 233.272 462.747 232.981 462.756 232.687L463.304 214.984L470.662 217.818C470.033 218.256 470.719 219.329 470.719 219.329C470.719 219.329 469.159 220.242 469.845 221.073V221.073Z" fill="white"/>
<path d="M472.287 212.656C472.287 212.656 471.787 215.866 470.536 216.054C469.284 216.242 468.723 221.247 467.476 221.073C466.228 220.899 467.054 216.416 467.098 215.548C467.142 214.68 465.738 211.083 466.785 210.266C467.833 209.449 471.165 210.266 471.165 210.266L472.287 212.656Z" fill="#CF6F80"/>
<path opacity="0.1" d="M474.932 187.938L477.288 183.151C477.288 183.151 478.23 186.799 478.23 188.748C478.23 190.697 479.543 190.888 479.543 190.888C479.543 190.888 480.981 192.598 480.223 193.845C479.464 195.093 479.162 198.184 479.162 198.184C479.162 198.184 479.41 204.095 478.285 204.912C477.159 205.729 476.908 207.681 476.908 207.681C476.908 207.681 474.844 211.391 474.908 212.273C474.973 213.155 472.032 219.128 472.032 219.128C472.032 219.128 473.47 211.705 465.089 208.498C465.089 208.498 465.024 205.982 465.65 205.292C466.275 204.601 467.251 204.266 466.639 200.792C466.027 197.319 466.462 193.131 466.462 192.293C466.462 191.456 468.339 186.235 468.339 186.235L474.932 187.938Z" fill="black"/>
<path d="M475.979 182.468L478.04 183.151C478.04 183.151 478.982 186.799 478.982 188.748C478.982 190.697 480.294 190.888 480.294 190.888C480.294 190.888 481.732 192.598 480.974 193.845C480.216 195.093 479.91 198.184 479.91 198.184C479.91 198.184 480.161 204.095 479.036 204.912C477.911 205.729 477.676 207.681 477.676 207.681C477.676 207.681 475.612 211.391 475.677 212.273C475.741 213.155 472.797 219.128 472.797 219.128C472.797 219.128 474.235 211.705 465.854 208.498C465.854 208.498 465.793 205.982 466.418 205.292C467.044 204.601 468.02 204.266 467.408 200.792C466.796 197.319 467.231 193.131 467.231 192.293C467.231 191.456 469.108 186.235 469.108 186.235L475.979 182.468Z" fill="white"/>
<path opacity="0.1" d="M430.459 306.526C430.459 306.526 433.743 304.451 435.899 305.959C438.054 307.467 430.459 306.526 430.459 306.526ZM455.987 300.109C455.987 300.109 458.894 299.733 461.335 302.376C463.776 305.019 455.987 300.109 455.987 300.109Z" fill="black"/>
<g opacity="0.1">
<path opacity="0.1" d="M460.233 134.772C459.815 135.137 459.278 135.394 458.999 135.876C458.761 136.289 458.754 136.802 458.564 137.243C458.374 137.684 457.819 138.05 457.432 137.77C457.343 134.693 455.837 131.804 453.984 129.342C453.466 128.601 452.836 127.944 452.117 127.397C451.39 126.846 450.484 126.587 449.577 126.672C448.557 126.813 447.66 127.51 446.63 127.599C445.27 127.712 444.049 126.765 442.699 126.72C442.151 126.724 441.609 126.847 441.112 127.079C440.615 127.312 440.173 127.648 439.816 128.067C439.106 128.909 438.579 129.891 438.269 130.949C437.734 132.556 437.443 134.234 437.405 135.927C437.385 136.881 437.296 138.071 436.419 138.426C436.439 138.68 436.439 138.935 436.419 139.189C437.306 138.847 437.395 137.64 437.415 136.683C437.453 134.989 437.745 133.311 438.279 131.705C438.589 130.646 439.116 129.665 439.826 128.823C440.183 128.404 440.625 128.067 441.122 127.834C441.62 127.601 442.161 127.478 442.709 127.472C444.069 127.52 445.293 128.467 446.64 128.351C447.66 128.266 448.564 127.568 449.588 127.428C450.494 127.342 451.4 127.599 452.128 128.149C452.846 128.698 453.476 129.355 453.994 130.098C455.847 132.56 457.353 135.438 457.442 138.525C457.83 138.806 458.384 138.437 458.574 137.999C458.765 137.561 458.771 137.048 459.009 136.631C459.288 136.149 459.825 135.889 460.244 135.527C461.304 134.607 461.57 133.059 461.529 131.654V131.524C461.461 132.748 461.138 133.989 460.233 134.772V134.772ZM435.13 134.532C434.352 133.667 433.284 133.086 432.567 132.17C431.961 131.361 431.615 130.385 431.577 129.373C431.471 130.638 431.822 131.9 432.567 132.925C433.284 133.842 434.352 134.419 435.13 135.284C435.882 136.13 436.334 137.202 436.416 138.334C436.467 137.646 436.379 136.955 436.158 136.301C435.938 135.648 435.588 135.046 435.13 134.532V134.532ZM462.188 124.207C461.988 125.045 461.631 125.842 461.468 126.686C461.37 127.257 461.334 127.837 461.362 128.416C461.373 128.089 461.409 127.763 461.468 127.442C461.631 126.597 461.988 125.801 462.188 124.963C462.304 124.501 462.342 124.022 462.301 123.548C462.279 123.77 462.241 123.99 462.188 124.207V124.207Z" fill="black"/>
</g>
<path opacity="0.1" d="M197.13 317.798C215.427 317.798 230.26 315.403 230.26 312.448C230.26 309.493 215.427 307.097 197.13 307.097C178.832 307.097 163.999 309.493 163.999 312.448C163.999 315.403 178.832 317.798 197.13 317.798Z" fill="#106DF6"/>
<path d="M196.065 209.948H198.197V258.212H196.065V209.948Z" fill="#535461"/>
<path d="M211.597 258.068L211.461 260.242L211.274 263.319L211.196 264.598L211.005 267.675L210.924 268.954L210.737 272.03L208.585 306.926C208.493 308.428 207.835 309.837 206.745 310.868C205.655 311.898 204.215 312.472 202.719 312.472H191.543C190.043 312.472 188.6 311.896 187.509 310.86C186.418 309.824 185.763 308.408 185.678 306.902L183.526 272.007L183.339 268.93L183.261 267.651L183.067 264.574L182.989 263.295L182.802 260.218L182.666 258.044C182.642 257.627 182.703 257.21 182.845 256.818C182.987 256.425 183.207 256.066 183.491 255.762C183.775 255.458 184.118 255.215 184.499 255.049C184.88 254.882 185.29 254.795 185.705 254.793H208.561C208.978 254.795 209.39 254.883 209.772 255.052C210.154 255.22 210.497 255.465 210.782 255.772C211.066 256.078 211.285 256.44 211.425 256.835C211.566 257.23 211.624 257.65 211.597 258.068V258.068Z" fill="#3F3D56"/>
<path d="M211.461 260.239L211.271 263.309H182.989L182.798 260.239H211.461ZM211.192 264.588L211.005 267.658H183.257L183.067 264.588H211.192ZM210.924 268.94L210.737 272.007H183.526L183.335 268.94H210.924Z" fill="#9D9CB5"/>
<path d="M179.558 228.04C191.975 237.073 197.147 251.2 197.147 251.2C197.147 251.2 182.186 250.683 169.766 241.651C157.345 232.618 152.167 218.502 152.167 218.502C152.167 218.502 167.127 219.008 179.558 228.04Z" fill="#106DF6"/>
<path d="M152.167 218.502C152.167 218.502 167.695 227.169 172.676 234.345C177.657 241.521 197.133 251.206 197.133 251.206" stroke="#535461" stroke-width="2" stroke-miterlimit="10"/>
<path d="M187.558 209.845C194.318 214.758 197.133 222.447 197.133 222.447C197.133 222.447 188.973 222.167 182.23 217.254C175.488 212.341 172.656 204.649 172.656 204.649C172.656 204.649 180.802 204.929 187.558 209.845V209.845Z" fill="#106DF6"/>
<path d="M172.656 204.649C172.656 204.649 181.108 209.367 183.822 213.271C186.535 217.175 197.133 222.447 197.133 222.447" stroke="#535461" stroke-width="2" stroke-miterlimit="10"/>
<path d="M206.953 222.058C199.19 230.635 197.548 241.846 197.548 241.846C197.548 241.846 208.493 239.145 216.248 230.564C224.004 221.982 225.653 210.775 225.653 210.775C225.653 210.775 214.715 213.48 206.953 222.058Z" fill="#106DF6"/>
<path d="M225.66 210.779C225.66 210.779 215.548 219.572 212.978 225.63C210.407 231.688 197.548 241.846 197.548 241.846" stroke="#535461" stroke-width="2" stroke-miterlimit="10"/>
</g>
<defs>
<linearGradient id="paint0_linear_2_2" x1="310.285" y1="316.663" x2="310.285" y2="119.175" gradientUnits="userSpaceOnUse">
<stop stop-color="#808080" stop-opacity="0.25"/>
<stop offset="0.54" stop-color="#808080" stop-opacity="0.12"/>
<stop offset="1" stop-color="#808080" stop-opacity="0.1"/>
</linearGradient>
<linearGradient id="paint1_linear_2_2" x1="445.222" y1="325.309" x2="445.222" y2="114.936" gradientUnits="userSpaceOnUse">
<stop stop-color="#808080" stop-opacity="0.25"/>
<stop offset="0.54" stop-color="#808080" stop-opacity="0.12"/>
<stop offset="1" stop-color="#808080" stop-opacity="0.1"/>
</linearGradient>
<clipPath id="clip0_2_2">
<rect width="397" height="295" fill="white" transform="translate(152 31)"/>
</clipPath>
</defs>
</svg>
