<svg xmlns="http://www.w3.org/2000/svg" data-name="Layer 1" width="899.238" height="634.838"><path d="M100.334 507.86a81.057 81.057 0 01-52.68-19.454c-4.898-4.192-10.116-11.48-15.51-21.66a49.536 49.536 0 01-1.571-42.765 56.842 56.842 0 01-9.387 7.7l-1.716 1.141-.1-2.058a82.05 82.05 0 01-.097-3.964c0-7.616 5.76-15.344 3.103-22.383-11.196-29.67-46.708-59.155 4.76-105.072 4.761-4.247-1.6-12.74-1.6-19.167 0-62.981 68.433-157.46 114.244-114.22 26.74 25.238 82.452 43.167 108.464 78.273l.344 1.04-1.015.411a61.223 61.223 0 01-16.266 4.327 77.569 77.569 0 0018.138 1.52l.943-.034.23.917a114.743 114.743 0 013.406 27.766l-.004 1.012a50.592 50.592 0 0016.712 37.723 81.244 81.244 0 0126.506 59.951c0 13.352-9.075 30.879-16.687 43.23a24.445 24.445 0 01-17.946 11.495 23.873 23.873 0 01-19.267-6.224 78.949 78.949 0 0013.923 19.712l1.039 1.07-1.29.751a80.998 80.998 0 01-40.832 11.027l-.84-.002c-21.782 0-42.457 8.438-56.724 23.152a81.673 81.673 0 01-58.28 24.785z" fill="#e6e6e6"/><path d="M71.75 634.838a1.458 1.458 0 01-1.442-1.252c-.062-.436-6.129-44.187-.68-102.336 5.031-53.7 21.19-131.05 69.594-194.575a1.458 1.458 0 112.32 1.767C93.554 401.42 77.526 478.2 72.53 531.522c-5.417 57.81.602 101.22.663 101.653a1.459 1.459 0 01-1.445 1.663z" fill="#3f3d56"/><path d="M115.946 424.673a1.458 1.458 0 01-.858-2.637 200.92 200.92 0 0144.356-22.58c24.472-8.959 61.686-17.081 99.996-4.888a1.458 1.458 0 11-.884 2.778c-37.525-11.943-74.064-3.955-98.11 4.849a197.62 197.62 0 00-43.644 22.2 1.452 1.452 0 01-.856.278z" fill="#3f3d56"/><path d="M702.334 507.86a81.057 81.057 0 01-52.68-19.454c-4.898-4.192-10.116-11.48-15.51-21.66a49.536 49.536 0 01-1.571-42.765 56.842 56.842 0 01-9.387 7.7l-1.716 1.141-.1-2.058a82.05 82.05 0 01-.097-3.964c0-7.616 5.76-15.344 3.103-22.383-11.196-29.67-46.708-59.155 4.76-105.072 4.761-4.247-1.6-12.74-1.6-19.167 0-62.981 89.016-171.942 114.244-114.22 31.113 71.184 84.717 63.57 108.464 78.273l.344 1.04-1.015.411a61.223 61.223 0 01-16.266 4.327 77.569 77.569 0 0018.138 1.52l.943-.034.23.917a114.743 114.743 0 013.406 27.766l-.004 1.012a50.592 50.592 0 0016.712 37.723 81.244 81.244 0 0126.506 59.951c0 13.352-9.075 30.879-16.687 43.23a24.445 24.445 0 01-17.946 11.495 23.873 23.873 0 01-19.267-6.224 78.949 78.949 0 0013.923 19.712l1.039 1.07-1.29.751a80.998 80.998 0 01-40.832 11.027l-.84-.002c-21.782 0-42.457 8.438-56.724 23.152a81.673 81.673 0 01-58.28 24.785z" fill="#e6e6e6"/><path d="M673.75 634.838a1.458 1.458 0 01-1.442-1.252c-.062-.436-6.129-44.187-.68-102.336 5.031-53.7 21.19-131.05 69.594-194.575a1.458 1.458 0 112.32 1.767c-47.987 62.977-64.015 139.758-69.011 193.08-5.417 57.81.602 101.22.663 101.653a1.459 1.459 0 01-1.445 1.663z" fill="#3f3d56"/><path d="M713.946 427.673a1.458 1.458 0 01-.858-2.637 200.92 200.92 0 0144.356-22.58c24.472-8.959 61.686-17.081 99.996-4.888a1.458 1.458 0 11-.884 2.778c-37.525-11.943-74.064-3.955-98.11 4.849a197.62 197.62 0 00-43.644 22.2 1.452 1.452 0 01-.856.278zM647.226 261.498a1.458 1.458 0 012.568-1.046 200.92 200.92 0 0125.716 42.615c10.698 23.763 21.48 60.295 12.077 99.384a1.458 1.458 0 11-2.834-.682c9.208-38.288-1.39-74.157-11.902-97.505a197.62 197.62 0 00-25.286-41.933 1.452 1.452 0 01-.34-.833zM48.226 252.498a1.458 1.458 0 012.568-1.046 200.92 200.92 0 0125.716 42.615c10.698 23.763 21.48 60.295 12.077 99.384a1.458 1.458 0 11-2.834-.682c9.208-38.288-1.39-74.157-11.902-97.505a197.62 197.62 0 00-25.286-41.933 1.452 1.452 0 01-.34-.833z" fill="#3f3d56"/><path d="M450.6 105.127a15.666 15.666 0 00-25.187 3.852c-23.719 16.508-38.756 38.627-44.43 66.798L338.906 137.6a15.297 15.297 0 10-12.64 12.76c7.724 13.112 43.554 71.096 65.669 57.82 18.588-11.158 51.598-66.445 61.296-84.78a15.668 15.668 0 00-2.63-18.272z" fill="#ffb6b6"/><path d="M451.945 130.446c2.113-5.727 3.807-12.04 1.974-17.863-2.015-6.404-8.206-10.99-14.826-12.105s-13.5.881-19.193 4.44c-5.692 3.56-10.321 8.588-14.434 13.895l1.102-1.753-16.063 21.043 40.769 28.324a124.358 124.358 0 0020.671-35.98z" fill="#62d6f3"/><path fill="#ffb6b6" d="M393.337 613.616l-19.464-.001-9.26-75.08 28.728.001-.004 75.08z"/><path d="M394.023 633.922l-59.857-.003v-.757a23.3 23.3 0 0123.298-23.297h.001l10.934-8.295 20.4 8.296h5.225z" fill="#2f2e41"/><path fill="#ffb6b6" d="M678.864 337.19l8.17 17.666-64.254 39.926-12.06-26.075 68.144-31.517z"/><path d="M697.005 328.042l25.128 54.327-.687.318a23.3 23.3 0 01-30.926-11.364v-.001l-12.12-6.441-1.035-21.998-2.193-4.742z" fill="#2f2e41"/><ellipse cx="408.73" cy="165.097" rx="7.557" ry="5.257" transform="rotate(-16.708 -123.282 651.19)" fill="#e6e6e6"/><ellipse cx="458.074" cy="162.636" rx="7.557" ry="5.257" transform="rotate(-16.708 -73.938 648.729)" fill="#3f3d56"/><ellipse cx="401.247" cy="206.449" rx="7.557" ry="5.257" transform="rotate(-16.708 -130.766 692.544)" fill="#ff6584"/><ellipse cx="386.456" cy="224.051" rx="3.322" ry="4.776" transform="rotate(-8.863 -549.05 1204.376)" fill="#e6e6e6"/><ellipse cx="383.741" cy="255.156" rx="3.322" ry="4.776" transform="rotate(-8.863 -551.766 1235.481)" fill="#3f3d56"/><ellipse cx="431.642" cy="194.022" rx="3.322" ry="4.776" transform="rotate(-8.863 -503.86 1174.335)" fill="#e6e6e6"/><ellipse cx="406.398" cy="185.77" rx="3.322" ry="4.776" transform="rotate(-8.863 -529.11 1166.095)" fill="#ff6584"/><ellipse cx="435.903" cy="159.23" rx="3.322" ry="4.776" transform="rotate(-8.863 -499.604 1139.555)" fill="#3f3d56"/><ellipse cx="711.963" cy="655.093" rx="7.557" ry="5.257" transform="rotate(-8.278 -284.106 1709.598)" fill="#e6e6e6"/><ellipse cx="662.791" cy="650.295" rx="7.557" ry="5.257" transform="rotate(-8.278 -333.277 1704.8)" fill="#3f3d56"/><ellipse cx="725.427" cy="615.285" rx="7.557" ry="5.257" transform="rotate(-8.278 -270.641 1669.79)" fill="#ff6584"/><ellipse cx="742.638" cy="600.042" rx="3.322" ry="4.776" transform="rotate(-.433 -16851.415 21985.011)" fill="#e6e6e6"/><ellipse cx="749.884" cy="569.67" rx="3.322" ry="4.776" transform="rotate(-.433 -16844.17 21954.64)" fill="#3f3d56"/><ellipse cx="693.539" cy="623.122" rx="3.322" ry="4.776" transform="rotate(-.433 -16900.513 22008.092)" fill="#e6e6e6"/><ellipse cx="717.3" cy="634.986" rx="3.322" ry="4.776" transform="rotate(-.444 -16884.365 22021.34)" fill="#ff6584"/><ellipse cx="684.223" cy="656.914" rx="3.322" ry="4.776" transform="rotate(-.433 -16909.83 22041.883)" fill="#3f3d56"/><path d="M423.95 274.256l-11.83 14.487c.269 3.923-.968 6.165-4.642 5.684 0 0 .549 7.184-3.953 4.841s-3.397 4.16-3.397 4.16l-3.364 4.12s-.105 7.006-3.423 4.191-4.381 5.366-4.381 5.366l-4.222 5.17L341.7 374.98l24.126 193.714 28.198-1.77 6.873-169.825c1.753-4.683 4.414-7.136 8.483-6.133 1.822.399 2.887-.697 3.558-2.574l3.242-2.344 42.433-30.684 56.05 96.058 139.36-73.498-13-25-97.767 32.346-2.564-30.586c-3.34-1.946-2.779-4.27-.566-6.756l-.64-7.632c3.315-2.034 1.672-5.259-.726-8.664-5.007-3.697-4.516-7.909-1.04-12.4 0 0 4.392-57.451-16.898-65.379s-96.872 20.402-96.872 20.402z" fill="#2f2e41"/><path d="M465.743 85.674l-26.72 1.251-14 20a111.047 111.047 0 00-7.64 68.495l9.64 46.505-2.554 34.486c-6.844 5.522-7.413 12.013-1.445 19.514-7.347 25.35 55.172 13.941 113 5 .2-12.078-2.93-24.376-11-37l7.78-100.757-28.78-34.243-22.028-14.507z" fill="#62d6f3"/><path d="M490.748 113.31a15.666 15.666 0 00-2.067 25.395c3.225 20.916 23.249 41.065 54.737 58.65l-46.86 32.129a15.297 15.297 0 109.496 15.244c14.541-4.489 79.231-25.965 71.42-50.547-6.567-20.662-52.74-65.544-68.341-79.213a15.668 15.668 0 00-18.385-1.659z" fill="#ffb6b6"/><path d="M439.787 207.005a12.392 12.392 0 01-12.332-11.422l-1.66-21.155a12.39 12.39 0 0111.384-13.321l41.094-3.223a12.39 12.39 0 0113.32 11.384l1.66 21.155a12.39 12.39 0 01-11.384 13.32l-41.094 3.223q-.496.04-.988.039z" fill="#f2f2f2"/><circle cx="445.701" cy="45.618" r="34.984" fill="#ffb6b6"/><path d="M482.05 23.354c-1.658-2.152-3.555-4.129-4.999-6.43-1.39-2.216-2.339-4.703-3.905-6.797-4.634-6.195-13.25-7.461-20.947-8.233L436.95.366a35.253 35.253 0 00-8.62-.155 17.892 17.892 0 00-13.002 9.187c-1.489 2.818-2.484 6.33-5.387 7.644a34.81 34.81 0 01-4.173 1.037c-1.372.426-2.75 1.522-2.7 2.957.095 2.658 4.785 4.18 3.64 6.58-1.01 2.12-5.056.616-5.63 3.817a3.364 3.364 0 00.673 2.635c1.304 1.672 3.446 2.106 5.453 2.475l-3.565 5.098a52.765 52.765 0 0036.265 1.408 11.155 11.155 0 0114.599 11.788l-.016.145a3.127 3.127 0 001.255 2.954c1.809 1.23 3.646-.495 4.466-2.202.835-1.736 1.388-3.842 3.407-4.45a3.924 3.924 0 014.345 1.82c1.57 2.464.926 5.405.022 8.012a43.261 43.261 0 01-9.937 16.053c7.601-.503 5.377.259 12.978-.244l2.12.33c5.085-3.173 7.606-9.21 8.947-15.053 3.042-13.254 8.258-28.076-.04-38.848z" fill="#2f2e41"/><path d="M511.712 110.446c-5.052-3.428-10.773-6.588-16.866-6.208-6.7.417-12.64 5.325-15.312 11.484s-2.389 13.317-.301 19.697 5.856 12.082 10.02 17.35l-1.438-1.491 16.568 20.647 37.289-32.769a124.358 124.358 0 00-29.96-28.71z" fill="#62d6f3"/><path d="M444.731 632.082l.015-.697a80.529 80.529 0 0130.112-60.643 78.132 78.132 0 0116.787-10.115l.572-.255.097.618c1.162 7.38 3.001 14.913 3.858 18.256l5.744-22.414.638-.184a15.272 15.272 0 0116.303 5.208 15.534 15.534 0 011.612 17.332c-1.339 2.495-2.655 5.098-3.928 7.615-4.374 8.649-8.897 17.593-15.487 24.541a48.675 48.675 0 01-39.26 14.645z" fill="#f2f2f2"/><path d="M525.899 634.105l-271.75.307a1.19 1.19 0 110-2.382l271.75-.307a1.19 1.19 0 110 2.382zM779.899 634.105l-156.75.307a1.19 1.19 0 110-2.382l156.75-.307a1.19 1.19 0 110 2.382zM156.899 634.105l-146.75.307a1.19 1.19 0 110-2.382l146.75-.307a1.19 1.19 0 110 2.382z" fill="#cacaca"/><path d="M315.848 100.268a4.172 4.172 0 00-4.159 4.514c4.262 20.084 6.136 39.235 4.693 57.091a4.196 4.196 0 004.158 3.831h26.92a4.196 4.196 0 004.158-3.83c-2.175-18.012.125-37.242 4.692-57.092a4.172 4.172 0 00-4.158-4.514z" fill="#62d6f3"/><path d="M358.466 107.878l-2.008-9.54a3.864 3.864 0 00-3.781-3.068h-12.538a1.384 1.384 0 00-.236-.46l-1.393-1.74a1.401 1.401 0 00-1.094-.527h-7.741a1.401 1.401 0 00-1.094.526l-1.394 1.742a1.384 1.384 0 00-.235.459h-11.629a3.864 3.864 0 00-3.78 3.068l-2.01 9.54a3.864 3.864 0 003.782 4.66q19.7 6.242 41.37 0a3.864 3.864 0 003.78-4.66z" fill="#3f3d56"/></svg>