<svg xmlns="http://www.w3.org/2000/svg" xmlns:xlink="http://www.w3.org/1999/xlink" width="500" zoomAndPan="magnify" viewBox="0 0 375 374.999991" height="500" preserveAspectRatio="xMidYMid meet" version="1.0"><defs><g/><clipPath id="id1"><path d="M 24.265625 177 L 138.265625 177 L 138.265625 217 L 24.265625 217 Z M 24.265625 177 " clip-rule="nonzero"/></clipPath><clipPath id="id2"><path d="M 24.265625 185 L 129 185 L 129 239 L 24.265625 239 Z M 24.265625 185 " clip-rule="nonzero"/></clipPath><clipPath id="id3"><path d="M 24.265625 198 L 90 198 L 90 246.878906 L 24.265625 246.878906 Z M 24.265625 198 " clip-rule="nonzero"/></clipPath><clipPath id="id4"><path d="M 26 132.878906 L 138 132.878906 L 138 193 L 26 193 Z M 26 132.878906 " clip-rule="nonzero"/></clipPath></defs><g clip-path="url(#id1)"><path fill="rgb(19.999695%, 42.749023%, 74.899292%)" d="M 25.234375 182.171875 C 29.269531 182.363281 33.660156 182.949219 38.15625 184.179688 C 42.664062 185.367188 47.257812 187.15625 51.808594 189.339844 C 56.34375 191.546875 60.851562 194.121094 65.269531 196.871094 C 67.480469 198.242188 69.683594 199.640625 71.886719 201.027344 C 74.082031 202.429688 76.273438 203.824219 78.472656 205.167969 C 82.875 207.851562 87.285156 210.375 91.761719 212.375 C 100.429688 216.242188 110.554688 218.710938 119.90625 215.5 C 127.820312 212.78125 134.222656 206.640625 136.914062 198.667969 C 137.789062 196.0625 138.253906 193.328125 138.285156 190.582031 C 138.285156 190.503906 138.285156 190.429688 138.289062 190.351562 C 138.242188 190.390625 138.203125 190.429688 138.15625 190.464844 C 134.9375 193.183594 130.953125 195.648438 126.339844 197.433594 C 125.1875 197.875 123.992188 198.257812 122.769531 198.601562 C 122.160156 198.777344 121.539062 198.933594 120.914062 199.078125 C 120.285156 199.207031 119.652344 199.34375 119.011719 199.445312 C 118.386719 199.5625 117.695312 199.65625 117.019531 199.75 C 116.722656 199.785156 116.421875 199.816406 116.125 199.851562 L 115.898438 199.875 L 115.730469 199.894531 L 115.605469 199.90625 L 115.121094 199.949219 C 114.46875 200 113.816406 200.058594 113.160156 200.082031 C 112.5 200.109375 111.839844 200.144531 111.179688 200.140625 C 105.875 200.195312 100.445312 199.484375 95.210938 198.113281 C 89.96875 196.769531 84.875 194.925781 79.964844 192.886719 C 77.503906 191.871094 75.078125 190.828125 72.683594 189.78125 C 70.292969 188.722656 67.929688 187.671875 65.582031 186.660156 C 63.234375 185.65625 60.914062 184.679688 58.609375 183.761719 C 56.304688 182.847656 54.015625 182.011719 51.746094 181.265625 C 47.214844 179.746094 42.742188 178.652344 38.4375 178.007812 C 33.933594 177.332031 29.613281 177.210938 25.644531 177.472656 C 25.300781 179.015625 25.019531 180.578125 24.804688 182.164062 C 24.949219 182.167969 25.089844 182.167969 25.234375 182.171875 " fill-opacity="1" fill-rule="nonzero"/></g><g clip-path="url(#id2)"><path fill="rgb(17.248535%, 41.958618%, 93.728638%)" d="M 128.308594 222.128906 C 125.53125 223.292969 122.472656 224.226562 119.1875 224.792969 C 117.96875 224.996094 116.722656 225.132812 115.457031 225.234375 C 114.824219 225.285156 114.1875 225.3125 113.542969 225.335938 C 112.902344 225.335938 112.253906 225.347656 111.605469 225.320312 C 110.96875 225.308594 110.277344 225.265625 109.59375 225.226562 C 109.292969 225.199219 108.996094 225.171875 108.695312 225.148438 L 108.46875 225.128906 L 108.300781 225.113281 L 107.691406 225.042969 C 107.042969 224.96875 106.390625 224.898438 105.742188 224.789062 C 105.09375 224.6875 104.4375 224.589844 103.789062 224.457031 C 98.582031 223.464844 93.394531 221.695312 88.535156 219.324219 C 83.660156 216.96875 79.03125 214.160156 74.617188 211.191406 C 72.40625 209.714844 70.234375 208.210938 68.09375 206.714844 C 65.957031 205.207031 63.84375 203.707031 61.742188 202.253906 C 59.644531 200.804688 57.558594 199.390625 55.480469 198.039062 C 53.402344 196.691406 51.320312 195.417969 49.242188 194.238281 C 45.097656 191.855469 40.929688 189.902344 36.839844 188.421875 C 32.746094 186.941406 28.722656 185.988281 24.941406 185.445312 C 24.777344 185.421875 24.617188 185.402344 24.460938 185.382812 C 24.34375 186.871094 24.28125 188.375 24.28125 189.898438 C 24.28125 191.222656 24.328125 192.539062 24.417969 193.84375 C 25.757812 194.324219 27.101562 194.851562 28.445312 195.457031 C 32.71875 197.320312 36.984375 199.792969 41.144531 202.648438 C 45.289062 205.523438 49.347656 208.757812 53.292969 212.152344 C 55.269531 213.847656 57.230469 215.566406 59.191406 217.277344 C 61.148438 218.996094 63.097656 220.710938 65.066406 222.375 C 69.003906 225.703125 72.976562 228.875 77.09375 231.535156 C 93 241.816406 111.210938 242.359375 124.320312 227.285156 C 125.277344 226.179688 127.070312 222.648438 128.308594 222.128906 " fill-opacity="1" fill-rule="nonzero"/></g><g clip-path="url(#id3)"><path fill="rgb(7.449341%, 35.688782%, 100%)" d="M 89.003906 245.945312 C 88.378906 245.746094 87.746094 245.550781 87.128906 245.320312 C 82.132812 243.542969 77.277344 240.996094 72.839844 237.910156 C 68.382812 234.835938 64.234375 231.347656 60.332031 227.738281 C 58.375 225.941406 56.457031 224.121094 54.570312 222.3125 C 52.691406 220.496094 50.832031 218.691406 48.984375 216.933594 C 47.128906 215.179688 45.285156 213.460938 43.4375 211.808594 C 41.589844 210.15625 39.730469 208.578125 37.855469 207.09375 C 34.128906 204.105469 30.308594 201.535156 26.492188 199.445312 C 25.976562 199.164062 25.460938 198.890625 24.945312 198.628906 C 29.148438 225.96875 52.773438 246.902344 81.289062 246.902344 C 84.242188 246.902344 87.144531 246.675781 89.980469 246.246094 C 89.652344 246.152344 89.328125 246.054688 89.003906 245.945312 " fill-opacity="1" fill-rule="nonzero"/></g><g clip-path="url(#id4)"><path fill="rgb(37.249756%, 57.249451%, 92.939758%)" d="M 38.894531 173.585938 C 43.550781 173.863281 48.40625 174.714844 53.296875 175.957031 C 58.179688 177.226562 63.101562 178.863281 67.976562 180.6875 C 70.417969 181.59375 72.851562 182.53125 75.285156 183.460938 C 77.710938 184.398438 80.132812 185.335938 82.554688 186.21875 C 87.398438 187.984375 92.222656 189.589844 97.007812 190.664062 C 101.785156 191.742188 106.503906 192.316406 111.023438 192.171875 C 111.585938 192.167969 112.148438 192.128906 112.707031 192.09375 C 113.265625 192.070312 113.816406 192.003906 114.367188 191.953125 L 114.777344 191.917969 L 114.871094 191.90625 L 114.878906 191.90625 L 114.9375 191.898438 L 115.160156 191.871094 C 115.453125 191.832031 115.75 191.792969 116.042969 191.753906 C 116.546875 191.671875 117.035156 191.601562 117.570312 191.492188 C 119.65625 191.078125 121.675781 190.574219 123.589844 189.886719 C 127.445312 188.59375 130.90625 186.765625 134.003906 184.824219 C 135.339844 183.980469 136.589844 183.105469 137.777344 182.222656 C 134.03125 154.367188 110.167969 132.890625 81.289062 132.890625 C 55.292969 132.890625 33.367188 150.289062 26.507812 174.074219 C 30.324219 173.535156 34.503906 173.289062 38.894531 173.585938 " fill-opacity="1" fill-rule="nonzero"/></g><g fill="rgb(7.449341%, 35.688782%, 100%)" fill-opacity="1"><g transform="translate(145.696605, 183.331578)"><g><path d="M 42.421875 -21.085938 C 42.421875 -16.492188 41.554688 -12.578125 39.816406 -9.351562 C 38.078125 -6.125 35.71875 -3.664062 32.734375 -1.964844 C 29.753906 -0.269531 26.398438 0.578125 22.667969 0.578125 C 18.925781 0.578125 15.5625 -0.273438 12.585938 -1.980469 C 9.605469 -3.683594 7.25 -6.148438 5.515625 -9.375 C 3.78125 -12.605469 2.914062 -16.507812 2.914062 -21.085938 C 2.914062 -25.683594 3.78125 -29.597656 5.515625 -32.824219 C 7.25 -36.050781 9.605469 -38.511719 12.585938 -40.210938 C 15.5625 -41.90625 18.925781 -42.753906 22.667969 -42.753906 C 26.398438 -42.753906 29.753906 -41.90625 32.734375 -40.210938 C 35.71875 -38.511719 38.078125 -36.050781 39.816406 -32.824219 C 41.554688 -29.597656 42.421875 -25.683594 42.421875 -21.085938 Z M 33.378906 -21.085938 C 33.378906 -24.0625 32.933594 -26.574219 32.050781 -28.621094 C 31.164062 -30.671875 29.917969 -32.222656 28.3125 -33.277344 C 26.710938 -34.332031 24.828125 -34.859375 22.667969 -34.859375 C 20.511719 -34.859375 18.628906 -34.332031 17.023438 -33.277344 C 15.417969 -32.222656 14.175781 -30.671875 13.289062 -28.621094 C 12.402344 -26.574219 11.960938 -24.0625 11.960938 -21.085938 C 11.960938 -18.113281 12.402344 -15.601562 13.289062 -13.550781 C 14.175781 -11.503906 15.417969 -9.953125 17.023438 -8.898438 C 18.628906 -7.84375 20.511719 -7.316406 22.667969 -7.316406 C 24.828125 -7.316406 26.710938 -7.84375 28.3125 -8.898438 C 29.917969 -9.953125 31.164062 -11.503906 32.050781 -13.550781 C 32.933594 -15.601562 33.378906 -18.113281 33.378906 -21.085938 Z M 33.378906 -21.085938 "/></g></g></g><g fill="rgb(7.449341%, 35.688782%, 100%)" fill-opacity="1"><g transform="translate(192.083638, 183.331578)"><g><path d="M 10.9375 0 L 1.382812 0 L 15.929688 -42.175781 L 27.429688 -42.175781 L 41.976562 0 L 32.421875 0 L 21.84375 -32.539062 L 21.515625 -32.539062 Z M 10.347656 -16.574219 L 32.917969 -16.574219 L 32.917969 -9.621094 L 10.347656 -9.621094 Z M 10.347656 -16.574219 "/></g></g></g><g fill="rgb(7.449341%, 35.688782%, 100%)" fill-opacity="1"><g transform="translate(236.493864, 183.331578)"><g><path d="M 26.539062 -30.050781 C 26.375 -31.707031 25.667969 -33 24.417969 -33.921875 C 23.167969 -34.84375 21.476562 -35.304688 19.339844 -35.304688 C 17.886719 -35.304688 16.65625 -35.101562 15.648438 -34.691406 C 14.644531 -34.28125 13.878906 -33.71875 13.351562 -33.007812 C 12.828125 -32.296875 12.5625 -31.484375 12.554688 -30.578125 C 12.539062 -29.820312 12.703125 -29.164062 13.046875 -28.597656 C 13.390625 -28.035156 13.875 -27.550781 14.492188 -27.144531 C 15.113281 -26.738281 15.828125 -26.390625 16.640625 -26.101562 C 17.449219 -25.808594 18.3125 -25.5625 19.226562 -25.355469 L 23.015625 -24.449219 C 24.855469 -24.035156 26.542969 -23.488281 28.082031 -22.796875 C 29.617188 -22.109375 30.953125 -21.261719 32.085938 -20.257812 C 33.214844 -19.253906 34.09375 -18.074219 34.71875 -16.714844 C 35.34375 -15.355469 35.660156 -13.796875 35.667969 -12.042969 C 35.660156 -9.46875 35.007812 -7.234375 33.707031 -5.347656 C 32.410156 -3.457031 30.542969 -1.996094 28.105469 -0.960938 C 25.667969 0.0742188 22.730469 0.59375 19.292969 0.59375 C 15.882812 0.59375 12.921875 0.0742188 10.40625 -0.96875 C 7.890625 -2.007812 5.929688 -3.554688 4.523438 -5.609375 C 3.121094 -7.660156 2.378906 -10.207031 2.304688 -13.246094 L 10.9375 -13.246094 C 11.035156 -11.835938 11.445312 -10.65625 12.167969 -9.714844 C 12.890625 -8.773438 13.855469 -8.066406 15.0625 -7.59375 C 16.273438 -7.121094 17.648438 -6.886719 19.191406 -6.886719 C 20.707031 -6.886719 22.019531 -7.105469 23.132812 -7.542969 C 24.25 -7.976562 25.117188 -8.585938 25.734375 -9.367188 C 26.351562 -10.144531 26.664062 -11.050781 26.671875 -12.078125 C 26.664062 -13.023438 26.382812 -13.820312 25.828125 -14.460938 C 25.269531 -15.105469 24.460938 -15.65625 23.398438 -16.109375 C 22.335938 -16.566406 21.039062 -16.976562 19.507812 -17.347656 L 14.910156 -18.484375 C 11.351562 -19.351562 8.542969 -20.703125 6.484375 -22.546875 C 4.425781 -24.390625 3.402344 -26.871094 3.410156 -29.984375 C 3.402344 -32.535156 4.089844 -34.765625 5.472656 -36.679688 C 6.855469 -38.589844 8.753906 -40.082031 11.167969 -41.148438 C 13.582031 -42.21875 16.328125 -42.753906 19.40625 -42.753906 C 22.539062 -42.753906 25.269531 -42.21875 27.609375 -41.144531 C 29.945312 -40.074219 31.765625 -38.585938 33.074219 -36.675781 C 34.382812 -34.765625 35.054688 -32.558594 35.089844 -30.050781 Z M 26.539062 -30.050781 "/></g></g></g><g fill="rgb(7.449341%, 35.688782%, 100%)" fill-opacity="1"><g transform="translate(275.509027, 183.331578)"><g><path d="M 3.675781 -42.175781 L 12.585938 -42.175781 L 12.585938 0 L 3.675781 0 Z M 3.675781 -42.175781 "/></g></g></g><g fill="rgb(7.449341%, 35.688782%, 100%)" fill-opacity="1"><g transform="translate(292.820428, 183.331578)"><g><path d="M 26.539062 -30.050781 C 26.375 -31.707031 25.667969 -33 24.417969 -33.921875 C 23.167969 -34.84375 21.476562 -35.304688 19.339844 -35.304688 C 17.886719 -35.304688 16.65625 -35.101562 15.648438 -34.691406 C 14.644531 -34.28125 13.878906 -33.71875 13.351562 -33.007812 C 12.828125 -32.296875 12.5625 -31.484375 12.554688 -30.578125 C 12.539062 -29.820312 12.703125 -29.164062 13.046875 -28.597656 C 13.390625 -28.035156 13.875 -27.550781 14.492188 -27.144531 C 15.113281 -26.738281 15.828125 -26.390625 16.640625 -26.101562 C 17.449219 -25.808594 18.3125 -25.5625 19.226562 -25.355469 L 23.015625 -24.449219 C 24.855469 -24.035156 26.542969 -23.488281 28.082031 -22.796875 C 29.617188 -22.109375 30.953125 -21.261719 32.085938 -20.257812 C 33.214844 -19.253906 34.09375 -18.074219 34.71875 -16.714844 C 35.34375 -15.355469 35.660156 -13.796875 35.667969 -12.042969 C 35.660156 -9.46875 35.007812 -7.234375 33.707031 -5.347656 C 32.410156 -3.457031 30.542969 -1.996094 28.105469 -0.960938 C 25.667969 0.0742188 22.730469 0.59375 19.292969 0.59375 C 15.882812 0.59375 12.921875 0.0742188 10.40625 -0.96875 C 7.890625 -2.007812 5.929688 -3.554688 4.523438 -5.609375 C 3.121094 -7.660156 2.378906 -10.207031 2.304688 -13.246094 L 10.9375 -13.246094 C 11.035156 -11.835938 11.445312 -10.65625 12.167969 -9.714844 C 12.890625 -8.773438 13.855469 -8.066406 15.0625 -7.59375 C 16.273438 -7.121094 17.648438 -6.886719 19.191406 -6.886719 C 20.707031 -6.886719 22.019531 -7.105469 23.132812 -7.542969 C 24.25 -7.976562 25.117188 -8.585938 25.734375 -9.367188 C 26.351562 -10.144531 26.664062 -11.050781 26.671875 -12.078125 C 26.664062 -13.023438 26.382812 -13.820312 25.828125 -14.460938 C 25.269531 -15.105469 24.460938 -15.65625 23.398438 -16.109375 C 22.335938 -16.566406 21.039062 -16.976562 19.507812 -17.347656 L 14.910156 -18.484375 C 11.351562 -19.351562 8.542969 -20.703125 6.484375 -22.546875 C 4.425781 -24.390625 3.402344 -26.871094 3.410156 -29.984375 C 3.402344 -32.535156 4.089844 -34.765625 5.472656 -36.679688 C 6.855469 -38.589844 8.753906 -40.082031 11.167969 -41.148438 C 13.582031 -42.21875 16.328125 -42.753906 19.40625 -42.753906 C 22.539062 -42.753906 25.269531 -42.21875 27.609375 -41.144531 C 29.945312 -40.074219 31.765625 -38.585938 33.074219 -36.675781 C 34.382812 -34.765625 35.054688 -32.558594 35.089844 -30.050781 Z M 26.539062 -30.050781 "/></g></g></g><g fill="rgb(8.628845%, 38.42926%, 100%)" fill-opacity="1"><g transform="translate(154.811874, 208.401439)"><g><path d="M 4.078125 -13.59375 L 4.078125 0 L 1.34375 0 L 1.34375 -13.59375 Z M 4.078125 -13.59375 "/></g></g></g><g fill="rgb(8.628845%, 38.42926%, 100%)" fill-opacity="1"><g transform="translate(168.118292, 208.401439)"><g><path d="M 12.96875 0 L 10.25 0 L 4.078125 -9.328125 L 4.078125 0 L 1.34375 0 L 1.34375 -13.625 L 4.078125 -13.625 L 10.25 -4.265625 L 10.25 -13.625 L 12.96875 -13.625 Z M 12.96875 0 "/></g></g></g><g fill="rgb(8.628845%, 38.42926%, 100%)" fill-opacity="1"><g transform="translate(190.32399, 208.401439)"><g><path d="M 10.59375 -13.59375 L 10.59375 -11.390625 L 6.96875 -11.390625 L 6.96875 0 L 4.25 0 L 4.25 -11.390625 L 0.625 -11.390625 L 0.625 -13.59375 Z M 10.59375 -13.59375 "/></g></g></g><g fill="rgb(8.628845%, 38.42926%, 100%)" fill-opacity="1"><g transform="translate(209.452914, 208.401439)"><g><path d="M 4.078125 -11.390625 L 4.078125 -7.984375 L 8.65625 -7.984375 L 8.65625 -5.828125 L 4.078125 -5.828125 L 4.078125 -2.21875 L 9.234375 -2.21875 L 9.234375 0 L 1.34375 0 L 1.34375 -13.625 L 9.234375 -13.625 L 9.234375 -11.390625 Z M 4.078125 -11.390625 "/></g></g></g><g fill="rgb(8.628845%, 38.42926%, 100%)" fill-opacity="1"><g transform="translate(227.705533, 208.401439)"><g><path d="M 10.8125 -9.515625 C 10.5 -10.078125 10.066406 -10.507812 9.515625 -10.8125 C 8.972656 -11.113281 8.34375 -11.265625 7.625 -11.265625 C 6.8125 -11.265625 6.09375 -11.082031 5.46875 -10.71875 C 4.851562 -10.351562 4.367188 -9.832031 4.015625 -9.15625 C 3.660156 -8.476562 3.484375 -7.695312 3.484375 -6.8125 C 3.484375 -5.90625 3.660156 -5.113281 4.015625 -4.4375 C 4.378906 -3.757812 4.878906 -3.238281 5.515625 -2.875 C 6.148438 -2.519531 6.890625 -2.34375 7.734375 -2.34375 C 8.773438 -2.34375 9.625 -2.617188 10.28125 -3.171875 C 10.945312 -3.722656 11.382812 -4.488281 11.59375 -5.46875 L 6.921875 -5.46875 L 6.921875 -7.5625 L 14.28125 -7.5625 L 14.28125 -5.1875 C 14.101562 -4.238281 13.710938 -3.359375 13.109375 -2.546875 C 12.515625 -1.742188 11.742188 -1.097656 10.796875 -0.609375 C 9.859375 -0.128906 8.804688 0.109375 7.640625 0.109375 C 6.328125 0.109375 5.140625 -0.179688 4.078125 -0.765625 C 3.023438 -1.359375 2.195312 -2.179688 1.59375 -3.234375 C 0.988281 -4.285156 0.6875 -5.476562 0.6875 -6.8125 C 0.6875 -8.15625 0.988281 -9.351562 1.59375 -10.40625 C 2.195312 -11.46875 3.023438 -12.296875 4.078125 -12.890625 C 5.140625 -13.484375 6.320312 -13.78125 7.625 -13.78125 C 9.15625 -13.78125 10.484375 -13.40625 11.609375 -12.65625 C 12.742188 -11.90625 13.523438 -10.859375 13.953125 -9.515625 Z M 10.8125 -9.515625 "/></g></g></g><g fill="rgb(8.628845%, 38.42926%, 100%)" fill-opacity="1"><g transform="translate(250.553846, 208.401439)"><g><path d="M 8.359375 0 L 5.359375 -5.296875 L 4.078125 -5.296875 L 4.078125 0 L 1.34375 0 L 1.34375 -13.59375 L 6.453125 -13.59375 C 7.503906 -13.59375 8.398438 -13.40625 9.140625 -13.03125 C 9.878906 -12.664062 10.429688 -12.164062 10.796875 -11.53125 C 11.171875 -10.90625 11.359375 -10.207031 11.359375 -9.4375 C 11.359375 -8.539062 11.097656 -7.726562 10.578125 -7 C 10.054688 -6.28125 9.285156 -5.785156 8.265625 -5.515625 L 11.515625 0 Z M 4.078125 -7.34375 L 6.359375 -7.34375 C 7.097656 -7.34375 7.644531 -7.519531 8 -7.875 C 8.363281 -8.238281 8.546875 -8.738281 8.546875 -9.375 C 8.546875 -10 8.363281 -10.484375 8 -10.828125 C 7.644531 -11.171875 7.097656 -11.34375 6.359375 -11.34375 L 4.078125 -11.34375 Z M 4.078125 -7.34375 "/></g></g></g><g fill="rgb(8.628845%, 38.42926%, 100%)" fill-opacity="1"><g transform="translate(270.929059, 208.401439)"><g><path d="M 9.6875 -2.59375 L 4.265625 -2.59375 L 3.375 0 L 0.5 0 L 5.390625 -13.625 L 8.578125 -13.625 L 13.46875 0 L 10.578125 0 Z M 8.9375 -4.78125 L 6.96875 -10.46875 L 5 -4.78125 Z M 8.9375 -4.78125 "/></g></g></g><g fill="rgb(8.628845%, 38.42926%, 100%)" fill-opacity="1"><g transform="translate(292.764768, 208.401439)"><g><path d="M 10.59375 -13.59375 L 10.59375 -11.390625 L 6.96875 -11.390625 L 6.96875 0 L 4.25 0 L 4.25 -11.390625 L 0.625 -11.390625 L 0.625 -13.59375 Z M 10.59375 -13.59375 "/></g></g></g><g fill="rgb(8.628845%, 38.42926%, 100%)" fill-opacity="1"><g transform="translate(311.893686, 208.401439)"><g><path d="M 4.078125 -11.390625 L 4.078125 -7.984375 L 8.65625 -7.984375 L 8.65625 -5.828125 L 4.078125 -5.828125 L 4.078125 -2.21875 L 9.234375 -2.21875 L 9.234375 0 L 1.34375 0 L 1.34375 -13.625 L 9.234375 -13.625 L 9.234375 -11.390625 Z M 4.078125 -11.390625 "/></g></g></g><g fill="rgb(8.628845%, 38.42926%, 100%)" fill-opacity="1"><g transform="translate(330.14631, 208.401439)"><g><path d="M 6.09375 -13.59375 C 7.519531 -13.59375 8.773438 -13.3125 9.859375 -12.75 C 10.953125 -12.195312 11.789062 -11.40625 12.375 -10.375 C 12.96875 -9.34375 13.265625 -8.144531 13.265625 -6.78125 C 13.265625 -5.414062 12.96875 -4.222656 12.375 -3.203125 C 11.789062 -2.179688 10.953125 -1.390625 9.859375 -0.828125 C 8.773438 -0.273438 7.519531 0 6.09375 0 L 1.34375 0 L 1.34375 -13.59375 Z M 6 -2.3125 C 7.425781 -2.3125 8.53125 -2.703125 9.3125 -3.484375 C 10.09375 -4.265625 10.484375 -5.363281 10.484375 -6.78125 C 10.484375 -8.195312 10.09375 -9.300781 9.3125 -10.09375 C 8.53125 -10.894531 7.425781 -11.296875 6 -11.296875 L 4.078125 -11.296875 L 4.078125 -2.3125 Z M 6 -2.3125 "/></g></g></g><g fill="rgb(8.628845%, 38.42926%, 100%)" fill-opacity="1"><g transform="translate(351.991404, 208.401439)"><g/></g></g><g fill="rgb(8.628845%, 38.42926%, 100%)" fill-opacity="1"><g transform="translate(154.811874, 235.317362)"><g><path d="M 12.625 -13.59375 L 12.625 0 L 9.890625 0 L 9.890625 -5.78125 L 4.078125 -5.78125 L 4.078125 0 L 1.34375 0 L 1.34375 -13.59375 L 4.078125 -13.59375 L 4.078125 -8.015625 L 9.890625 -8.015625 L 9.890625 -13.59375 Z M 12.625 -13.59375 "/></g></g></g><g fill="rgb(8.628845%, 38.42926%, 100%)" fill-opacity="1"><g transform="translate(176.667054, 235.317362)"><g><path d="M 4.078125 -11.390625 L 4.078125 -7.984375 L 8.65625 -7.984375 L 8.65625 -5.828125 L 4.078125 -5.828125 L 4.078125 -2.21875 L 9.234375 -2.21875 L 9.234375 0 L 1.34375 0 L 1.34375 -13.625 L 9.234375 -13.625 L 9.234375 -11.390625 Z M 4.078125 -11.390625 "/></g></g></g><g fill="rgb(8.628845%, 38.42926%, 100%)" fill-opacity="1"><g transform="translate(194.919673, 235.317362)"><g><path d="M 9.6875 -2.59375 L 4.265625 -2.59375 L 3.375 0 L 0.5 0 L 5.390625 -13.625 L 8.578125 -13.625 L 13.46875 0 L 10.578125 0 Z M 8.9375 -4.78125 L 6.96875 -10.46875 L 5 -4.78125 Z M 8.9375 -4.78125 "/></g></g></g><g fill="rgb(8.628845%, 38.42926%, 100%)" fill-opacity="1"><g transform="translate(216.755375, 235.317362)"><g><path d="M 4.078125 -2.15625 L 8.546875 -2.15625 L 8.546875 0 L 1.34375 0 L 1.34375 -13.59375 L 4.078125 -13.59375 Z M 4.078125 -2.15625 "/></g></g></g><g fill="rgb(8.628845%, 38.42926%, 100%)" fill-opacity="1"><g transform="translate(233.586446, 235.317362)"><g><path d="M 10.59375 -13.59375 L 10.59375 -11.390625 L 6.96875 -11.390625 L 6.96875 0 L 4.25 0 L 4.25 -11.390625 L 0.625 -11.390625 L 0.625 -13.59375 Z M 10.59375 -13.59375 "/></g></g></g><g fill="rgb(8.628845%, 38.42926%, 100%)" fill-opacity="1"><g transform="translate(252.71537, 235.317362)"><g><path d="M 12.625 -13.59375 L 12.625 0 L 9.890625 0 L 9.890625 -5.78125 L 4.078125 -5.78125 L 4.078125 0 L 1.34375 0 L 1.34375 -13.59375 L 4.078125 -13.59375 L 4.078125 -8.015625 L 9.890625 -8.015625 L 9.890625 -13.59375 Z M 12.625 -13.59375 "/></g></g></g></svg>